<?xml version="1.0" standalone="no"?>
<!DOCTYPE svg PUBLIC "-//W3C//DTD SVG 1.1//EN" "http://www.w3.org/Graphics/SVG/1.1/DTD/svg11.dtd" >
<svg xmlns="http://www.w3.org/2000/svg" xmlns:xlink="http://www.w3.org/1999/xlink" version="1.1">
<metadata>
Created by FontForge 20170731 at Mon Apr  5 08:28:11 2021
 By Aleksey,,,
Copyright (c) 1985, 1987, 1991, 1993, 1997 Adobe Systems Incorporated.  All Rights Reserved.Helvetica is a trademark of Linotype-Hell AG and/or its subsidiaries.
</metadata>
<defs>
<font id="Helvetica-Condensed-Bold" horiz-adv-x="1024" >
  <font-face 
    font-family="Helvetica Condensed"
    font-weight="700"
    font-stretch="condensed"
    units-per-em="2048"
    panose-1="2 11 8 6 0 0 0 0 0 0"
    ascent="1536"
    descent="-512"
    x-height="1155"
    cap-height="1536"
    bbox="-346 -512 2234 2030"
    underline-thickness="102"
    underline-position="-409"
    unicode-range="U+0020-FB02"
  />
<missing-glyph horiz-adv-x="512" 
 />
    <glyph glyph-name=".notdef" horiz-adv-x="512" 
 />
    <glyph glyph-name=".null" horiz-adv-x="0" 
 />
    <glyph glyph-name="nonmarkingreturn" horiz-adv-x="682" 
 />
    <glyph glyph-name="space" unicode=" " horiz-adv-x="512" 
 />
    <glyph glyph-name="space" unicode="&#xa0;" horiz-adv-x="512" 
 />
    <glyph glyph-name="exclam" unicode="!" horiz-adv-x="681" 
d="M207 1106v430h266v-430q7 -131 -12 -354q-3 -32 -14.5 -159t-16.5 -196h-174q-4 70 -16.5 201.5t-14.5 153.5q-21 204 -18 354zM475 0h-266v270h266v-270z" />
    <glyph glyph-name="quotedbl" unicode="&#x22;" horiz-adv-x="681" 
d="M651 958h-243v555h243v-555zM276 958h-243v555h243v-555z" />
    <glyph glyph-name="numbersign" unicode="#" 
d="M911 678v-201h-176l-59 -477h-174l57 477h-147l-60 -477h-172l58 477h-175v201h201l23 188h-172v201h194l56 444h170l-54 -444h150l53 444h176l-55 -444h156v-201h-181l-22 -188h153zM606 866h-147l-23 -188h146z" />
    <glyph glyph-name="dollar" unicode="$" 
d="M571 588v-414q56 16 89.5 64t33.5 129q0 70 -38.5 130.5t-84.5 90.5zM446 174v457q-143 95 -189 133q-116 99 -149 227q-16 64 -16 144q0 147 86 253t262 128v129h140v-129q160 -19 244 -96t89 -187q1 -13 5.5 -58.5t3.5 -70.5h-238q0 91 -22.5 139.5t-90.5 67.5v-408
q380 -195 383 -473q3 -213 -85 -322.5t-289 -138.5v-223h-140v217q-105 9 -180 49.5t-117 107t-59 149.5t-12 186h245q2 -121 9 -157q20 -90 102 -119q9 -3 18 -5zM446 944v367q-52 -7 -80 -50.5t-28 -103.5q0 -36 7.5 -65.5t27.5 -59t31 -42.5t42 -46z" />
    <glyph glyph-name="percent" unicode="%" horiz-adv-x="1705" 
d="M377 1507q63 0 112 -11t82 -28.5t56.5 -47t36 -58t19.5 -70.5t9 -76t2 -83t-2 -83t-9 -76t-19.5 -71t-36 -58.5t-56.5 -47t-82 -28.5t-112 -11q-62 0 -110.5 11t-81 28.5t-56 47t-36 58.5t-19.5 71t-9 76t-2 83t2 83t9 76t19.5 70.5t36 58t56 47t81 28.5t110.5 11z
M381 1358q-25 0 -44 -6t-32 -14t-21.5 -26t-13.5 -32.5t-7 -42.5t-2.5 -48t-0.5 -56q0 -51 1 -77.5t7.5 -60t18.5 -49.5t35.5 -27.5t58.5 -11.5q22 0 39 3.5t29 13t20.5 18.5t14 27.5t8.5 31.5t4.5 39.5t1.5 42.5v50q0 38 -0.5 56.5t-2.5 47.5t-6.5 43t-12.5 32t-20.5 26
t-31 14t-43.5 6zM1329 750q63 0 112 -11t81.5 -28.5t56 -47.5t36.5 -58t20 -71t8.5 -76.5t1.5 -82.5t-1.5 -82.5t-8.5 -76.5t-20 -71t-36.5 -58t-56 -47.5t-81.5 -28.5t-112 -11q-62 0 -110.5 11t-81 28.5t-55.5 47t-35.5 58.5t-19.5 71t-9 76t-2 83t2 83t9 76t19.5 71
t35.5 58.5t55.5 47t81 28.5t110.5 11zM1331 600q-29 0 -50 -6t-34 -22.5t-20.5 -31.5t-10.5 -47t-3.5 -53t-0.5 -65t0.5 -65t3.5 -53t10.5 -47t20.5 -31.5t34 -22.5t50 -6q25 0 43.5 6t31 14t20.5 26t12.5 32t6.5 43t2.5 47.5t0.5 56.5t-0.5 56.5t-2.5 47.5t-6.5 43
t-12.5 32t-20.5 26t-31 14t-43.5 6zM573 -31h-145l688 1567h144z" />
    <glyph glyph-name="ampersand" unicode="&#x26;" horiz-adv-x="1366" 
d="M627 1061q118 93 118 186q0 52 -31 85.5t-71 35.5q-41 2 -69.5 -23.5t-28.5 -76.5q0 -32 12 -65.5t39 -83t31 -58.5zM743 870l193 -333q40 125 47 280h227q0 -284 -135 -516l185 -307h-308l-55 102q-77 -74 -161.5 -103.5t-196.5 -29.5q-176 0 -293 133t-117 330
q0 109 38 199t97.5 153t155.5 131q-39 67 -59.5 107.5t-41 104.5t-20.5 120q0 87 31 153.5t83 104t112.5 56t127.5 18.5q129 0 226.5 -88t97.5 -232q0 -121 -62.5 -218t-171.5 -165zM788 279l-247 423q-51 -19 -104 -99.5t-40 -172.5q13 -94 67.5 -164.5t137.5 -70.5
q91 0 186 84z" />
    <glyph glyph-name="quotesingle" unicode="'" horiz-adv-x="512" 
d="M379 958h-244v555h244v-555z" />
    <glyph glyph-name="parenleft" unicode="(" horiz-adv-x="681" 
d="M406 1573h165q-67 -132 -106 -254t-63.5 -316.5t-24.5 -463.5q0 -287 41.5 -491t156.5 -454h-169q-117 199 -177.5 340t-91.5 306t-31 383q0 271 72 504t228 446z" />
    <glyph glyph-name="parenright" unicode=")" horiz-adv-x="681" 
d="M276 -406h-165q67 132 106 254.5t63.5 317t24.5 463.5q0 286 -42 489.5t-157 454.5h170q87 -149 140 -258t91 -230.5t53 -248t15 -291.5q0 -272 -71.5 -505t-227.5 -446z" />
    <glyph glyph-name="asterisk" unicode="*" 
d="M782 944l-135 -98l-110 158q-2 3 -9 13t-10 17q-4 -8 -24 -39l-111 -151l-135 96l112 156q7 12 23 28q-7 2 -20.5 6.5t-20.5 6.5l-180 57l49 156l182 -58q1 0 15.5 -4t21.5 -8q-2 12 -2 41v190h164v-190q0 -25 -2 -37q2 1 18 5.5t25 8.5l176 60l55 -160l-184 -55
q-24 -8 -37 -8q18 -18 29 -37z" />
    <glyph glyph-name="plus" unicode="+" 
d="M399 623v385h226v-385h348v-226h-348v-397h-226v397h-346v226h346z" />
    <glyph glyph-name="comma" unicode="," horiz-adv-x="681" 
d="M207 -297v90q71 7 109.5 64.5t33.5 142.5h-143v270h270v-264q0 -131 -68 -208.5t-202 -94.5z" />
    <glyph glyph-name="hyphen" unicode="-" horiz-adv-x="681" 
d="M586 522h-488v236h488v-236z" />
    <glyph glyph-name="hyphen" unicode="&#xad;" horiz-adv-x="681" 
d="M586 522h-488v236h488v-236z" />
    <glyph glyph-name="period" unicode="." horiz-adv-x="681" 
d="M477 0h-270v270h270v-270z" />
    <glyph glyph-name="slash" unicode="/" horiz-adv-x="569" 
d="M-23 -193l484 1729h178l-483 -1729h-179z" />
    <glyph glyph-name="zero" unicode="0" 
d="M385 1102v-690q-10 -217 125 -217q141 0 131 217v690q10 215 -131 215q-135 0 -125 -215zM98 412v690q0 235 105.5 337.5t310.5 102.5q203 0 308.5 -102.5t105.5 -337.5v-690q0 -236 -106 -339.5t-310 -103.5q-203 0 -308.5 104t-105.5 339z" />
    <glyph glyph-name="one" unicode="1" 
d="M436 0v1065h-346v205q80 1 143 13.5t120.5 41t97.5 81.5t61 130h211v-1536h-287z" />
    <glyph glyph-name="two" unicode="2" 
d="M905 0h-839q4 135 24 260q30 179 270 432l140 148q45 49 62.5 70t40.5 58.5t30.5 75.5t7.5 91q0 99 -35.5 140.5t-101.5 41.5q-106 0 -133 -76q-10 -24 -15.5 -52.5t-6 -54.5t-1 -55.5t-0.5 -54.5h-268v43v5q0 34 0.5 54t4.5 61.5t11 69.5t22 68.5t36.5 68.5t55 58.5
t75.5 48.5t101 30t130 11q184 -2 298 -108.5t114 -288.5q0 -124 -45.5 -225t-137.5 -195l-225 -233q-147 -152 -149 -267h534v-225z" />
    <glyph glyph-name="three" unicode="3" 
d="M350 709v225q11 1 55 1.5t72 5t53 15.5q53 25 70.5 72.5t17.5 116.5q0 88 -33.5 130t-103.5 42q-54 0 -94 -27.5t-43 -93.5v-109h-268q-12 219 88 337t315 118q211 0 314.5 -103t103.5 -292q0 -53 -10.5 -103t-33 -96.5t-63 -78.5t-94.5 -40v-4q107 -13 171 -107.5
t61 -264.5q0 -484 -447 -484q-82 0 -148.5 17t-110 44t-76 66.5t-49.5 78.5t-27 86t-12 83t-1 76v90h269q1 -17 1.5 -49.5t0.5 -54t3.5 -51.5t9 -50.5t17 -43t28 -35.5t42.5 -22t59 -9q25 0 46 5.5t36 13t26.5 23.5t19 28.5t13 35.5t8 38.5t4 44t1.5 44v47.5v10
q0 123 -33 162q-24 29 -76.5 44t-87 16.5t-94.5 1.5z" />
    <glyph glyph-name="four" unicode="4" 
d="M258 537h287v622h-4zM512 1511h319v-974h132v-226h-132v-311h-286v311h-498v226z" />
    <glyph glyph-name="five" unicode="5" 
d="M344 707h-254l39 804h739v-225h-518l-18 -328q51 50 100 68t123 18q70 0 127 -17t96 -45t68.5 -70t46.5 -86.5t27.5 -100t14 -104.5t3.5 -107q0 -135 -21 -232.5t-69 -169.5t-131 -107.5t-203 -35.5q-130 0 -215.5 29.5t-135 95.5t-69 158.5t-18.5 230.5h268
q0 -12 0.5 -43.5t1.5 -48t4 -45.5t8.5 -46t16 -39t25 -34t37 -21.5t50.5 -10.5q38 -2 66.5 6t45.5 34.5t27.5 44t15.5 64.5t6 64.5t2 73.5q1 23 1 34q4 90 -6 151t-33.5 93.5t-53 45.5t-71.5 13q-55 0 -96 -31.5t-47 -80.5z" />
    <glyph glyph-name="six" unicode="6" 
d="M373 532q-2 -48 -0.5 -92t3.5 -83t12 -70t25 -53t42.5 -32t64.5 -7q92 1 118 79q17 49 15 194v64v34v38t-1 36.5t-3.5 37.5t-7.5 33.5t-11.5 32.5t-17.5 25.5t-24.5 21.5t-32 12.5t-41.5 5.5q-29 0 -52 -9.5t-37.5 -22.5t-25 -38t-15.5 -44t-7.5 -53.5t-3 -53.5t-0.5 -56
zM86 553v369q0 182 26 303t83 190.5t137 98t198 28.5q178 0 281.5 -85.5t97.5 -260.5h-266q-1 27 -4 43t-14 38.5t-37.5 32.5t-67.5 7q-29 -2 -52.5 -12.5t-39 -24t-26.5 -36t-16.5 -40.5t-9.5 -47t-4.5 -44.5t-1.5 -44.5t-1 -38v-98q26 28 38 38.5t40.5 29.5t64 26.5
t82.5 7.5q180 0 263 -120t83 -361q0 -151 -20 -255t-67.5 -180.5t-130.5 -112.5t-206 -36q-101 0 -176.5 26.5t-124 74.5t-78 122.5t-41 161t-10.5 199.5z" />
    <glyph glyph-name="seven" unicode="7" 
d="M66 1286v225h864v-206q-183 -326 -287 -744q-79 -307 -90 -561h-295q16 224 79 452t165 486q87 215 176 348h-612z" />
    <glyph glyph-name="eight" unicode="8" 
d="M371 426q0 -48 1.5 -74.5t9 -60.5t22.5 -51.5t43 -30.5t69 -14q26 2 46 8t34.5 18.5t24.5 24.5t16.5 33t10 36t5 43.5t2 44.5t0.5 48q0 44 -1 71.5t-5.5 62.5t-14 56t-24.5 41.5t-40 29.5t-58 9q-23 0 -42 -4.5t-33 -12.5t-24.5 -19t-17.5 -25.5t-12 -32t-7 -37
t-3.5 -41.5t-1.5 -46v-50v-27zM514 926q30 0 52 9t35.5 27.5t22 37.5t12 48t4.5 48.5t1 48.5q0 85 -33 128.5t-90 43.5q-40 0 -67.5 -15t-41 -43t-19 -60t-5.5 -75q0 -32 2 -56.5t10 -52.5t21 -46t37.5 -30.5t58.5 -12.5zM299 831q-66 35 -102.5 74t-57 107.5t-20.5 175.5
q0 51 13 100t43.5 95.5t75 81.5t113 56t152.5 21q209 0 300 -97.5t91 -297.5q0 -129 -40.5 -202t-153.5 -118v-4q127 -27 178 -119.5t51 -267.5q0 -246 -108 -356.5t-312 -110.5q-238 0 -338 113t-100 352q0 168 48.5 256t166.5 141z" />
    <glyph glyph-name="nine" unicode="9" 
d="M653 979q2 48 0.5 92t-3.5 83t-12 70.5t-25 53.5t-42.5 32t-64.5 7q-92 -1 -118 -80q-17 -49 -15 -194v-64v-34v-38t1 -36.5t3.5 -37.5t7.5 -33.5t11.5 -32.5t17.5 -25.5t24.5 -21.5t32 -12.5t41.5 -5.5q29 0 52 9.5t37.5 22.5t25 38t15.5 44t7.5 53.5t3 53.5t0.5 56z
M940 958v-368q0 -183 -25.5 -303.5t-82.5 -190.5t-136.5 -98.5t-197.5 -28.5q-178 0 -281.5 85.5t-97.5 260.5h266q1 -26 4.5 -42.5t14.5 -38t38 -31.5t68 -8q29 0 52.5 9t38.5 22t26 35.5t16.5 41.5t9 47.5t4.5 46t1.5 46t0.5 38.5v99q-27 -28 -38 -38.5t-40 -30t-64.5 -27
t-82.5 -7.5q-180 0 -264 120t-84 361q0 120 12.5 209.5t42 162t78 118t121.5 70t172 24.5q101 0 176 -26.5t123.5 -74.5t78 -122.5t40.5 -161t10 -199.5z" />
    <glyph glyph-name="colon" unicode=":" horiz-adv-x="569" 
d="M420 868h-270v271h270v-271zM420 0h-270v270h270v-270z" />
    <glyph glyph-name="semicolon" unicode=";" horiz-adv-x="569" 
d="M150 -297v90q71 7 109.5 64.5t33.5 142.5h-143v270h270v-264q0 -131 -68 -208.5t-202 -94.5zM420 868h-270v271h270v-271z" />
    <glyph glyph-name="less" unicode="&#x3c;" 
d="M332 510l608 -332v-227l-854 461v202l854 465v-227z" />
    <glyph glyph-name="equal" unicode="=" 
d="M973 821v-225h-920v225h920zM973 422v-225h-920v225h920z" />
    <glyph glyph-name="greater" unicode="&#x3e;" 
d="M86 178l608 332l-608 342v227l854 -465v-202l-854 -461v227z" />
    <glyph glyph-name="question" unicode="?" 
d="M360 1133h-254q-12 221 92.5 330.5t307.5 109.5q182 0 288.5 -102t106.5 -279q0 -110 -31.5 -183t-109.5 -171q-24 -26 -71 -78.5t-71 -77.5q-73 -90 -73 -270h-240q-2 47 6 141q5 69 29 129.5t48 93.5t75 94.5t76 94.5q47 65 63 109t16 120q0 89 -27 127.5t-89 38.5
q-88 0 -115 -47q-14 -25 -19 -54t-5.5 -70t-2.5 -56zM301 266h260v-266h-260v266z" />
    <glyph glyph-name="at" unicode="@" horiz-adv-x="1705" 
d="M1339 303h197q-117 -161 -279 -250.5t-354 -89.5q-226 0 -415 105t-299.5 291.5t-110.5 414.5q0 168 63.5 317t172.5 254.5t259 166.5t318 61q300 0 500 -172q237 -201 237 -475q0 -267 -164 -437q-67 -68 -174.5 -124t-193.5 -56q-42 0 -69.5 36t-16.5 93l-4 4
q-131 -125 -252 -125q-158 0 -252 107.5t-94 269.5q0 126 52.5 237t153.5 181t228 70q173 0 260 -125l22 108h201l-108 -630q-6 -28 7 -39t33 -4q26 7 66.5 45.5t73.5 85.5q25 35 47.5 105.5t23.5 137.5q7 255 -156 405t-427 150q-140 0 -260.5 -48.5t-205.5 -134
t-133 -205.5t-48 -259q0 -194 90.5 -345.5t245.5 -232.5t346 -81q211 0 419 188zM1032 758q8 101 -34.5 170.5t-133.5 62.5q-93 -7 -159 -83.5t-72 -176.5q-6 -97 35.5 -155t109.5 -68q55 -8 103 13t78.5 60.5t49.5 85.5t23 91z" />
    <glyph glyph-name="A" unicode="A" horiz-adv-x="1138" 
d="M326 0h-308l367 1536h387l348 -1536h-307l-76 389h-336zM532 1051l-86 -437h246l-78 437q-10 52 -28 213q-1 21 -11 102h-4q-8 -65 -10 -102q-17 -149 -29 -213z" />
    <glyph glyph-name="B" unicode="B" horiz-adv-x="1138" 
d="M420 225h61q9 0 34.5 -0.5t38 0t32.5 1.5t36 5t31 11q88 39 88 213q0 66 -8 107t-30.5 72t-64 43.5t-108.5 12.5h-110v-465zM420 915h53q42 0 58 0.5t51 5t57.5 16.5t38.5 32q31 45 31 166q0 92 -31.5 132.5t-124.5 43.5h-133v-396zM639 0h-506v1536h463
q114 0 192.5 -21.5t133.5 -91.5q45 -58 60 -122t15 -154q0 -55 -7 -99.5t-26 -89t-57 -78.5t-94 -55v-4q223 -32 223 -356q0 -113 -20 -189q-46 -146 -134.5 -211t-242.5 -65z" />
    <glyph glyph-name="C" unicode="C" horiz-adv-x="1138" 
d="M760 547h289q-1 -15 -3.5 -44.5t-3.5 -43.5q-4 -89 -19 -160t-46 -135.5t-78 -107.5t-119.5 -68t-165.5 -25q-77 0 -141 11.5t-112.5 30.5t-86 51.5t-63.5 66.5t-44 85t-28.5 97.5t-16.5 112.5t-7.5 121t-1.5 133v219q3 99 7.5 162t17 143t33 129t57.5 101.5t88 81
t126 47t172 18.5q390 -6 420 -397q8 -78 6 -117h-282q-2 14 -4.5 46t-5 53.5t-8 52t-15 51t-23.5 40t-36.5 29.5t-51.5 10q-43 0 -77.5 -13.5t-55.5 -36t-36.5 -52.5t-22 -63.5t-11 -68t-3.5 -67t0 -60.5v-26v-426q0 -40 2 -69.5t7.5 -72.5t19.5 -73t35.5 -59t58 -44
t83.5 -15q33 0 57.5 13.5t39.5 40t25 53.5t14 66t6 66t2.5 63.5t1.5 49.5z" />
    <glyph glyph-name="D" unicode="D" horiz-adv-x="1251" 
d="M434 225h125q39 0 70 4t56.5 14.5t45 22.5t35 35.5t25.5 46.5t17.5 61.5t12 74t7 91t3 106t0.5 124.5q0 284 -42 395t-166 111h-189v-1086zM678 0h-531v1536h598q71 0 154.5 -39.5t142.5 -134.5q47 -76 65.5 -202.5t18.5 -328.5q0 -274 -19 -401q-43 -289 -216 -389
q-70 -41 -213 -41z" />
    <glyph glyph-name="E" unicode="E" 
d="M938 0h-807v1536h807v-225h-520v-387h479v-226h-479v-473h520v-225z" />
    <glyph glyph-name="F" unicode="F" 
d="M436 0h-286v1536h813v-225h-527v-389h494v-226h-494v-696z" />
    <glyph glyph-name="G" unicode="G" horiz-adv-x="1251" 
d="M113 672v219q3 99 7.5 162t17 143t33 129t57.5 101.5t88 81t126 47t172 18.5q98 -1 171 -16t136.5 -51t107 -102t67.5 -163q5 -21 8 -48t3.5 -43.5t1.5 -50.5t1 -44h-287q-1 40 -2.5 65t-6.5 58t-13.5 53t-23.5 42.5t-36.5 35t-53.5 21.5t-73 11q-43 0 -77.5 -13.5
t-55.5 -36t-36.5 -52.5t-22 -63.5t-11 -68t-3.5 -67t0 -60.5v-26v-426q0 -40 2 -69.5t7.5 -72.5t19.5 -73t35.5 -59t58 -44t83.5 -15q116 0 166 109t45 296h-198v225h477v-825h-215v176h-4q-70 -198 -271 -213q-77 0 -141 11.5t-112.5 30.5t-86 51.5t-63.5 66.5t-44 85
t-28.5 97.5t-16.5 112.5t-7.5 121t-1.5 133z" />
    <glyph glyph-name="H" unicode="H" horiz-adv-x="1251" 
d="M426 0h-287v1536h287v-608h401v608h287v-1536h-287v702h-401v-702z" />
    <glyph glyph-name="I" unicode="I" horiz-adv-x="569" 
d="M428 0h-287v1536h287v-1536z" />
    <glyph glyph-name="J" unicode="J" horiz-adv-x="909" 
d="M16 487h287v-190q4 -102 92 -102q30 0 50 9.5t31 22.5t16.5 37t6.5 42.5t1 49.5v1180h286v-1120v-32v-36t-1 -35t-2.5 -38.5t-4 -36.5t-7 -39t-11 -35.5t-14.5 -36.5t-19.5 -32.5t-24.5 -31.5q-57 -61 -141 -80.5t-209 -19.5q-191 0 -295 158q-25 40 -36 147.5t-5 218.5z
" />
    <glyph glyph-name="K" unicode="K" horiz-adv-x="1138" 
d="M426 0h-287v1536h287v-682h4q43 114 180 369l168 313h324l-379 -659l397 -877h-323l-271 606l-100 -166v-440z" />
    <glyph glyph-name="L" unicode="L" 
d="M958 0h-819v1536h287v-1311h532v-225z" />
    <glyph glyph-name="M" unicode="M" horiz-adv-x="1593" 
d="M424 483v-483h-287v1536h457l154 -713q33 -153 53 -354h4q22 239 45 354l154 713h454v-1536h-287v483q0 492 25 916h-4l-307 -1399h-174l-301 1399h-11q25 -424 25 -916z" />
    <glyph glyph-name="N" unicode="N" horiz-adv-x="1251" 
d="M825 1235v301h287v-1536h-299l-223 547q-103 246 -205 610h-4q24 -311 31 -438q14 -270 14 -430v-289h-287v1536h297l223 -559q105 -252 205 -610h4q-18 244 -28 436q-15 276 -15 432z" />
    <glyph glyph-name="O" unicode="O" horiz-adv-x="1251" 
d="M125 672v219q3 99 7.5 162t17 142.5t33.5 129t57.5 102t88 81t126.5 47t172 18.5t172 -18.5t126 -47t88 -81t57.5 -101.5t33 -129t17 -143t7.5 -162v-219q0 -78 -1.5 -133t-7.5 -121t-16.5 -112.5t-28.5 -97.5t-44 -85t-63.5 -66.5t-86 -51.5t-112.5 -30.5t-141 -11.5
q-99 0 -176 19t-129.5 49t-89.5 83t-58 105.5t-32 133.5t-14 149.5t-3 169.5zM420 954v-426q0 -33 1 -58.5t5.5 -62.5t12.5 -64t23.5 -56.5t37 -48t54 -31t73.5 -12.5q43 0 76 13t54.5 31.5t37 51t23 59t11.5 69t4.5 67.5t0.5 67v393q0 158 -21 234q-44 161 -186 161
q-44 0 -78 -13.5t-55.5 -36t-37 -52.5t-22 -64t-11 -68.5t-3.5 -67t0 -60.5v-25z" />
    <glyph glyph-name="P" unicode="P" horiz-adv-x="1138" 
d="M426 1311v-443h154q101 0 154.5 54t53.5 186q0 66 -12.5 106t-43 61.5t-70 28.5t-105.5 7h-131zM426 0h-287v1536h586q79 0 142 -25t102.5 -66.5t66 -98.5t37 -117.5t10.5 -128.5q0 -252 -143 -365q-120 -96 -322 -92h-192v-643z" />
    <glyph glyph-name="Q" unicode="Q" horiz-adv-x="1251" 
d="M1202 -10l-145 -135l-160 155q-94 -47 -270 -47q-99 0 -176 19t-129.5 49t-89.5 83t-58 105.5t-32 133.5t-14 149.5t-3 169.5v219q3 99 7.5 162t17 142.5t33.5 129t57.5 102t88 81t126.5 47t172 18.5t172 -18.5t126 -47t88 -81t57.5 -101.5t33 -129t17 -143t7.5 -162
v-219q0 -180 -17 -312t-67 -213zM645 258l156 131l14 -14q16 75 16 153l3 426q0 130 -6 176q-31 210 -201 211q-44 0 -78 -13.5t-55.5 -36t-37 -52.5t-22 -64t-11 -68.5t-3.5 -67t0 -60.5v-25v-426q0 -33 1 -58.5t5.5 -62.5t12.5 -64t23.5 -56.5t37 -48t54 -31t73.5 -12.5
q40 0 73 10z" />
    <glyph glyph-name="R" unicode="R" horiz-adv-x="1251" 
d="M473 662h-51v-662h-287v1536h543q436 0 436 -369q0 -337 -235 -370v-4q120 -16 170.5 -88t50.5 -191v-31.5v-50.5t0.5 -61t2 -71t4 -70.5t7.5 -69t11 -58.5t15.5 -47t20.5 -26v-29h-315q-12 34 -19 93t-8.5 95t-2.5 116t-1 85q-3 118 -17 164q-23 70 -81 88q-11 3 -24 6
t-23 5t-25 3.5t-23.5 2.5t-25.5 2t-24 1.5t-25.5 0.5h-23.5h-25.5h-24.5zM422 1311v-424h225q76 5 122 58.5t46 162.5q0 63 -12 104t-37.5 61.5t-55.5 28.5t-75 9h-213z" />
    <glyph glyph-name="S" unicode="S" horiz-adv-x="1138" 
d="M1001 1069h-276q1 48 -1 81.5t-11.5 72.5t-27 62.5t-50 39.5t-78.5 16q-158 0 -158 -143q0 -34 9.5 -63t21 -47.5t38 -41t42.5 -33.5t53 -34q251 -158 348 -252q72 -70 100.5 -144t28.5 -177q0 -213 -128.5 -328t-344.5 -115q-467 0 -467 467v113h287v-90
q-10 -258 180 -258q178 0 178 180q0 124 -114 203q-50 39 -150 103t-175.5 123.5t-127.5 127.5q-74 110 -74 235q0 199 113 302.5t338 103.5q91 0 163.5 -19.5t118 -48.5t78.5 -74.5t49 -85t25 -94.5t10.5 -87.5t1.5 -78.5v-16z" />
    <glyph glyph-name="T" unicode="T" 
d="M35 1311v225h956v-225h-334v-1311h-286v1311h-336z" />
    <glyph glyph-name="U" unicode="U" horiz-adv-x="1251" 
d="M827 489v1047h287v-1071q0 -132 -23 -222.5t-78.5 -155t-149.5 -94.5t-234 -30q-141 0 -236 30t-151 94.5t-79.5 155t-23.5 222.5v1071h287v-1047q0 -54 2.5 -88.5t14 -77.5t32 -68t60.5 -42.5t96 -17.5q54 0 91.5 17.5t58 42.5t31 68t13 78t2.5 88z" />
    <glyph glyph-name="V" unicode="V" horiz-adv-x="1138" 
d="M629 551l162 985h307l-332 -1536h-383l-340 1536h307l180 -985q22 -118 35 -262q0 -4 6.5 -52.5t6.5 -74.5h4q0 19 2 40.5t5.5 47.5t4.5 39q13 144 35 262z" />
    <glyph glyph-name="W" unicode="W" horiz-adv-x="1705" 
d="M973 1536l153 -795q10 -54 20 -128t15 -123.5t15 -153t14 -141.5h4q2 18 5 54.5t5 55.5q17 223 43 393l115 838h297l-285 -1536h-344l-115 606q-14 72 -24 153t-20.5 183t-16.5 154h-4q-6 -50 -17 -154t-21 -184t-24 -152l-102 -606h-344l-293 1536h297l129 -838
q26 -170 43 -393q4 -38 8 -110h4q7 61 19.5 183t23 208t23.5 155l139 795h238z" />
    <glyph glyph-name="X" unicode="X" horiz-adv-x="1138" 
d="M735 778l381 -778h-328l-163 375q-43 97 -60 194h-4q-2 -21 -6 -41.5t-12 -45.5t-12 -38t-17 -43.5t-15 -36.5t-19 -43t-17 -38l-127 -283h-313l376 778l-362 758h321l156 -348q18 -42 27 -64.5t18 -59t10 -69.5h6q2 29 8 57t18 61t20 52t26 58.5t23 52.5l110 260h324z
" />
    <glyph glyph-name="Y" unicode="Y" horiz-adv-x="1138" 
d="M338 1536l162 -403q51 -124 67 -236h4q5 29 12 58.5t13 50t17.5 51t16.5 43.5t19 46t17 42l137 348h313l-405 -883v-653h-287v653l-399 883h313z" />
    <glyph glyph-name="Z" unicode="Z" 
d="M68 0v229l493 953q5 9 22 41.5t29.5 53.5t28.5 40q-37 -6 -111 -6h-430v225h840v-229l-494 -953q-6 -11 -22 -42t-28.5 -52.5t-28.5 -40.5q37 6 110 6h481v-225h-890z" />
    <glyph glyph-name="bracketleft" unicode="[" horiz-adv-x="681" 
d="M573 -193h-407v1729h407v-156h-182v-1417h182v-156z" />
    <glyph glyph-name="backslash" unicode="\" horiz-adv-x="512" 
d="M104 1536l484 -1729h-178l-484 1729h178z" />
    <glyph glyph-name="bracketright" unicode="]" horiz-adv-x="681" 
d="M109 1536h407v-1729h-407v156h182v1417h-182v156z" />
    <glyph glyph-name="asciicircum" unicode="^" 
d="M233 668l-213 96l369 772h246l369 -772l-213 -96l-279 571z" />
    <glyph glyph-name="underscore" unicode="_" 
d="M1024 -256h-1024v102h1024v-102z" />
    <glyph glyph-name="grave" unicode="`" horiz-adv-x="681" 
d="M2 1587h317l193 -299h-207z" />
    <glyph glyph-name="a" unicode="a" 
d="M901 0h-252q-23 47 -16 119h-4q-50 -77 -107 -111q-61 -39 -127 -39q-161 0 -235 83.5t-74 262.5q0 53 11 98t26.5 78t46 63.5t55.5 50t70 42.5t75 36t84 35q18 7 27 11q86 36 117 80t14 113q-8 36 -37 47.5t-88 11.5q-85 0 -113 -41t-26 -127h-254q-1 70 9 123.5
t36.5 102t71 80t117 49.5t170.5 18q75 0 135 -11.5t99.5 -29.5t68.5 -46t44 -56t23.5 -65t10 -66.5t0.5 -67.5v-682q0 -79 22 -162zM612 483v125q-21 -14 -65.5 -42.5t-81.5 -54t-68 -50.5q-45 -38 -45 -139q0 -72 28 -110t97 -38q38 0 64.5 16t39.5 38t20.5 59.5t8 65
t1 70.5t1.5 60z" />
    <glyph glyph-name="b" unicode="b" 
d="M397 725v-346q0 -205 129 -205q106 0 117 199v385q-1 14 -2.5 42t-2.5 42t-4 36.5t-7.5 34.5t-13.5 27.5t-20.5 22.5t-29.5 12.5t-41 5.5q-136 0 -125 -256zM131 0v1536h266v-369q0 -20 -2.5 -63t-3.5 -66h4q39 82 95 116t143 32q68 -2 115.5 -21.5t84 -65.5t55.5 -126
t21 -197v-418q-2 -61 -9 -111.5t-26 -104t-48 -90t-78.5 -60t-114.5 -23.5q-88 5 -145 38.5t-99 115.5h-4v-123h-254z" />
    <glyph glyph-name="c" unicode="c" horiz-adv-x="909" 
d="M825 754h-266v129q-6 98 -92 98q-30 0 -50 -13.5t-30 -37t-15 -56t-5 -70.5v-81v-272q-3 -112 6 -170t30 -80t64 -27q28 1 45.5 12t26.5 35.5t12.5 47t6.5 61.5v5t0.5 4.5t0.5 4.5v107h266v-107q0 -187 -85.5 -281t-278.5 -94q-375 0 -361 432v375q-1 95 17.5 167
t50 117.5t78.5 74t99 40t116 11.5q97 0 169.5 -28.5t114 -77.5t61.5 -108t19 -126v-92z" />
    <glyph glyph-name="d" unicode="d" 
d="M621 379v346q11 256 -125 256q-23 0 -41 -5.5t-29.5 -12.5t-20.5 -22.5t-13.5 -27.5t-7.5 -34.5t-4 -36.5t-2.5 -42t-2.5 -42v-385q11 -199 117 -199q129 0 129 205zM621 0v123h-5q-36 -83 -90.5 -116t-138.5 -38q-65 0 -114.5 23.5t-79 60t-48.5 90t-26.5 104
t-9.5 111.5v418q2 117 21 197t56 126t85 65.5t116 21.5q87 2 143 -32t95 -116h4q-8 47 -8 103v395h266v-1536h-266z" />
    <glyph glyph-name="e" unicode="e" 
d="M109 455v303q-9 205 92 316.5t297 111.5q79 0 139.5 -12t103.5 -33t73.5 -56.5t48.5 -73.5t28 -95t13 -110t3 -128v-156h-532v-168q1 -106 36 -143t103 -37q71 0 98.5 52t24.5 165h266q8 -201 -81.5 -311.5t-286.5 -110.5q-230 0 -330.5 115t-95.5 371zM375 727h266v100
q-2 88 -31 121t-108 33q-27 0 -47.5 -6t-33.5 -14.5t-22.5 -25.5t-14 -29.5t-7 -37.5t-2.5 -38.5v-42.5v-13v-47z" />
    <glyph glyph-name="f" unicode="f" horiz-adv-x="569" 
d="M145 961h-102v194h102v115q0 152 64.5 209t216.5 57h100v-213q-40 12 -59 12q-55 0 -55 -45v-135h114v-194h-114v-961h-267v961z" />
    <glyph glyph-name="g" unicode="g" 
d="M621 725q11 256 -125 256q-23 0 -41 -5.5t-29.5 -12.5t-20.5 -22.5t-13.5 -27.5t-7.5 -34.5t-4 -36.5t-2.5 -42t-2.5 -42v-385q11 -199 117 -199q129 0 129 205v346zM121 -129h266q0 -34 31 -51q28 -17 82 -17q41 0 68.5 15t41 42.5t18.5 56.5t5 67v133l-4 4
q-38 -80 -95.5 -113.5t-148.5 -38.5q-65 0 -114.5 23t-78.5 59.5t-48 89.5t-26 103.5t-9 111.5v418q2 117 21 197t55.5 126.5t84.5 66.5t115 22q177 3 231 -150h5v119h266v-1120q0 -77 -9.5 -135.5t-37 -115t-74 -93t-124.5 -58.5t-185 -22q-144 0 -235 61.5t-101 198.5z
" />
    <glyph glyph-name="h" unicode="h" 
d="M391 0h-266v1536h266v-500h4q84 150 240 150q122 0 197 -74t69 -221v-891h-266v791q0 96 -22 141.5t-91 48.5q-71 3 -102.5 -55.5t-28.5 -157.5v-768z" />
    <glyph glyph-name="i" unicode="i" horiz-adv-x="569" 
d="M418 0h-266v1155h266v-1155zM418 1294h-266v242h266v-242z" />
    <glyph glyph-name="j" unicode="j" horiz-adv-x="569" 
d="M63 -389v205q51 -3 75 9t24 52v1278h266v-1161q0 -14 1 -54.5t0.5 -61.5t-3 -58t-9.5 -60.5t-19 -51.5t-32 -47t-47 -32q-72 -33 -256 -18zM428 1294h-266v242h266v-242z" />
    <glyph glyph-name="k" unicode="k" horiz-adv-x="909" 
d="M365 0h-267v1536h267v-694q0 -24 -5 -146h5l251 459h291l-291 -465l283 -690h-297l-166 471l-71 -119v-352z" />
    <glyph glyph-name="l" unicode="l" horiz-adv-x="569" 
d="M418 0h-266v1536h266v-1536z" />
    <glyph glyph-name="m" unicode="m" horiz-adv-x="1593" 
d="M401 1155v-119h5q21 45 51 76t66.5 45.5t67 20.5t68.5 8q53 1 104 -13t92.5 -50t49.5 -87h4q77 150 267 150q138 0 210 -72t72 -174v-940h-266v780q0 37 -2 62.5t-9 54.5t-20.5 46.5t-37.5 28.5t-58 9t-58 -13t-39 -28.5t-23.5 -45.5t-11.5 -59t-3 -75v-760h-266v795
q0 36 -2 59.5t-9.5 50t-21 42t-38.5 25.5t-61 9q-31 0 -53 -7.5t-36.5 -23t-23 -32.5t-12.5 -45.5t-5 -51.5t-1 -61v-760h-266v1155h266z" />
    <glyph glyph-name="n" unicode="n" 
d="M391 1155v-119h4q21 47 53 79t67.5 46.5t63.5 19.5t56 5q122 0 197 -74t69 -221v-891h-266v770q0 96 -22 142t-91 49q-71 3 -102.5 -55.5t-28.5 -157.5v-748h-266v1155h266z" />
    <glyph glyph-name="o" unicode="o" 
d="M375 762v-385q0 -59 4 -92t18 -61t42.5 -39t76.5 -11q37 0 61 8.5t38.5 22t22 41t9.5 55.5t2 76v385q0 27 -0.5 41t-1.5 38.5t-5 38t-10 32.5t-15.5 29t-23.5 20.5t-33.5 15t-43.5 4.5q-29 0 -52 -7t-37.5 -16.5t-25 -29t-15.5 -34t-7.5 -42t-3 -43.5t-0.5 -47zM516 -31
q-75 -1 -133 9t-101 30.5t-73.5 56t-50.5 78.5t-30.5 105.5t-14.5 130t-4 158.5q0 84 1 127.5t5 112.5t11.5 105t21 87t34 77.5t51 58t70.5 46t93.5 25t119.5 10.5q83 0 146 -17.5t105.5 -40.5t71 -75.5t43.5 -92.5t22.5 -124t8.5 -137t2 -162q0 -91 -3.5 -158.5t-14.5 -130
t-30 -105.5t-49 -78.5t-72.5 -56t-99 -30.5t-130.5 -9z" />
    <glyph glyph-name="p" unicode="p" 
d="M385 725v-346q0 -205 129 -205q106 0 117 199v385q-1 14 -2.5 42t-2.5 42t-4 36.5t-7.5 34.5t-13.5 27.5t-20.5 22.5t-29.5 12.5t-41 5.5q-136 0 -125 -256zM385 1155v-121h4q36 83 91.5 118.5t140.5 33.5q90 -2 147.5 -38.5t91.5 -128.5t37 -247v-418q-2 -61 -9 -111.5
t-26 -103t-48 -88.5t-78.5 -59t-114.5 -23q-85 5 -141 36t-103 114h-4v-506h-254v1542h266z" />
    <glyph glyph-name="q" unicode="q" 
d="M614 379v346q11 256 -125 256q-23 0 -41 -5.5t-29.5 -13t-20 -22.5t-13 -27t-8 -34.5t-4 -36.5t-2 -41.5t-2.5 -42.5v-385q11 -199 116 -199q129 0 129 205zM881 1155v-1540h-267v508h-4q-36 -82 -91 -115.5t-140 -38.5q-65 0 -114.5 23.5t-79 60t-48 90t-26 104
t-9.5 111.5v418q2 117 21 197t56 126t84.5 65.5t115.5 21.5q86 2 140.5 -31.5t90.5 -116.5h4v117h267z" />
    <glyph glyph-name="r" unicode="r" horiz-adv-x="681" 
d="M379 1155v-205h4q45 114 104 164q12 10 24 18.5t23.5 14.5t20 10.5t20.5 7.5t17.5 5t17 3t15 1.5t15.5 1t13 0.5v-316q-122 12 -191.5 -30.5t-72.5 -161.5v-668h-266v1155h256z" />
    <glyph glyph-name="s" unicode="s" horiz-adv-x="909" 
d="M59 381h267q-3 -30 -3.5 -56t2.5 -45.5t6.5 -35t10.5 -26t13 -18.5t16.5 -13t17 -7.5t18.5 -4t18.5 -1.5h18.5h5q58 0 90.5 37t19.5 92q-1 19 -9 35.5t-25 32t-29 24.5t-36.5 24.5t-31.5 20.5l-145 101q-108 75 -164 160.5t-56 203.5q0 134 103.5 207.5t294.5 73.5
q379 0 370 -383h-266q4 96 -24.5 137t-98.5 41q-50 0 -81 -23.5t-31 -70.5q0 -24 7 -43t25.5 -37t28.5 -25.5t39 -27.5l217 -148q57 -33 116.5 -102.5t65.5 -124.5q3 -43 4.5 -86t-8.5 -83.5t-26 -76.5t-47.5 -66t-74 -52t-104.5 -34t-139 -12q-33 0 -67 4t-74.5 16
t-75.5 31t-67.5 51.5t-54.5 74t-32 102t-4 133.5z" />
    <glyph glyph-name="t" unicode="t" horiz-adv-x="569" 
d="M516 205v-209q-41 -5 -71 -7t-72.5 -2t-72.5 5.5t-63 18.5t-53 34t-33.5 54.5t-13.5 78.5v783h-108v194h106v318h268v-318h113v-194h-113v-717q6 -52 113 -39z" />
    <glyph glyph-name="u" unicode="u" 
d="M629 0v172h-4q-31 -103 -91 -152.5t-157 -50.5q-78 0 -129 19t-79 60t-39 93t-11 129v885h266v-790q0 -40 0.5 -55.5t7 -46.5t19.5 -52q34 -37 82 -37q26 0 46 9t33 20.5t21.5 34.5t13 38t6.5 45.5t2 42.5v42v749h267v-1155h-254z" />
    <glyph glyph-name="v" unicode="v" horiz-adv-x="909" 
d="M291 0l-271 1155h287l113 -647q18 -82 37 -342h4q19 260 37 342l114 647h277l-266 -1155h-332z" />
    <glyph glyph-name="w" unicode="w" horiz-adv-x="1366" 
d="M780 1155l129 -709q21 -124 27 -247h6q0 35 9 130.5t14 125.5l88 700h268l-234 -1155h-290l-88 467q-20 106 -35 291h-8q-6 -141 -27 -275l-82 -483h-297l-237 1155h280l94 -704q5 -30 14 -125.5t9 -130.5h4q6 123 27 247l110 713h219z" />
    <glyph glyph-name="x" unicode="x" horiz-adv-x="909" 
d="M322 590l-291 565h313l88 -209q28 -98 29 -104h4q4 19 33 108l94 205h295l-289 -559l295 -596h-299l-80 186q-43 94 -53 170h-4q-12 -79 -60 -184l-75 -172h-306z" />
    <glyph glyph-name="y" unicode="y" horiz-adv-x="909" 
d="M10 1155h281l117 -612q18 -101 38 -307h5q11 134 41 299l116 620h271l-281 -1171q-6 -22 -16 -65q-36 -145 -64 -197q-50 -93 -157 -114q-79 -15 -205 3v207q7 0 32 -2t42.5 -1.5t38.5 4.5t32.5 16.5t11.5 33.5q0 49 -24 147z" />
    <glyph glyph-name="z" unicode="z" horiz-adv-x="796" 
d="M752 965l-422 -760h422v-205h-705v209l406 741h-398v205h697v-190z" />
    <glyph glyph-name="braceleft" unicode="{" horiz-adv-x="561" 
d="M88 893v377q0 137 58 201.5t194 64.5h152v-4q-89 -20 -121.5 -75t-32.5 -150v-377q0 -116 -34.5 -176t-133.5 -82v-4q52 -7 87 -32t52 -66t23 -82.5t6 -96.5v-352q0 -87 33 -143.5t121 -79.5v-4h-134q-81 0 -134.5 18t-83 58t-41 93.5t-11.5 133.5v331q0 93 -34 145.5
t-120 74.5v4q43 6 74 26.5t48 52.5t24.5 67.5t7.5 76.5z" />
    <glyph glyph-name="bar" unicode="|" horiz-adv-x="512" 
d="M154 1536h204v-2048h-204v2048z" />
    <glyph glyph-name="braceright" unicode="}" horiz-adv-x="561" 
d="M473 1266v-375q0 -202 154 -223v-4q-49 -6 -80.5 -24t-47 -49.5t-21 -65t-5.5 -83.5v-331q0 -82 -11 -135t-39.5 -93t-80.5 -58t-133 -18h-139v5q87 21 120 75.5t33 149.5v350q0 46 3 78t13 66t28 57t49 43t75 33v4q-98 22 -133 82.5t-35 175.5v379q0 96 -35 152t-118 73
v6h139q144 -1 204 -63t60 -207z" />
    <glyph glyph-name="asciitilde" unicode="~" 
d="M856 735l117 -149q-64 -113 -97 -152q-73 -88 -167 -88q-53 0 -134 34t-151 67.5t-96 33.5q-20 0 -38.5 -8.5t-31 -18t-27.5 -32t-21.5 -33.5t-21.5 -40t-18 -36l-117 152q25 51 49 90t58 79.5t76.5 62.5t89.5 22q45 0 104 -21t105.5 -46.5t96 -46.5t77.5 -21
q22 0 40.5 8.5t34.5 28t25.5 34t25 42.5t21.5 38z" />
    <glyph glyph-name="exclamdown" unicode="&#xa1;" horiz-adv-x="681" 
d="M475 -348h-266v430q-5 151 12 354q2 23 14.5 154.5t16.5 200.5h180q2 -57 27 -355q18 -218 16 -354v-430zM209 915v271h266v-271h-266z" />
    <glyph glyph-name="cent" unicode="&#xa2;" 
d="M397 709v-428h4l115 680l-18 2q-30 0 -50 -13t-30 -36t-15.5 -55t-5.5 -69.5v-80.5zM610 446h267q2 -52 -7 -165q-17 -171 -133.5 -257.5t-287.5 -52.5l-41 -221h-142l49 258q-177 89 -168 389v375q0 74 14 137t38.5 108t57 80t70.5 55t78 30t78.5 8.5t73.5 -12.5l35 196
h143l-43 -225q96 -42 141.5 -124t43.5 -183v-92h-267v161h-6l-125 -702q21 -18 48.5 -17.5t54.5 13.5q4 5 7 10t5.5 12t4 12.5t3 15t2.5 15t2 17t1.5 16.5t1.5 18.5t1 18.5v106z" />
    <glyph glyph-name="sterling" unicode="&#xa3;" 
d="M252 690h-176v121h129q-94 149 -94 340q0 200 128.5 311t329.5 111q254 0 363 -195q7 -14 13 -28.5t10 -33t7.5 -29.5t5.5 -34t3 -30.5t1.5 -34.5t0.5 -31v-35v-32h-262q-2 118 -14 160q-36 95 -148 98q-170 0 -170 -218q0 -95 94 -319h299v-121h-254q19 -50 19 -121
q0 -115 -71 -217.5t-177 -171.5l6 -4q64 35 106 49.5t93 14.5q35 2 82 -5t98 -18.5t65 -13.5q92 -14 201 63l57 -223q-51 -34 -122 -54t-136 -20q-44 0 -88 8t-99.5 23t-80.5 20q-90 21 -160 10t-166 -61l-73 193q100 56 156.5 160.5t56.5 224.5q0 86 -33 143z" />
    <glyph glyph-name="currency" unicode="&#xa4;" 
d="M18 281l86 90q-37 70 -54 128.5t-17 133.5q0 142 71 264l-86 86l156 164l86 -88q128 78 252 78q136 0 260 -78l88 88l148 -164l-84 -86q73 -122 73 -262q0 -155 -73 -264l84 -90l-148 -162l-88 88q-129 -78 -252 -78q-141 0 -260 78l-86 -88zM516 895q-99 0 -170.5 -79
t-71.5 -181t71.5 -183t170.5 -81q100 0 170 80.5t70 183.5q0 102 -70 181t-170 79z" />
    <glyph glyph-name="yen" unicode="&#xa5;" 
d="M1061 1536l-406 -883v-123h222v-102h-222v-125h222v-102h-222v-201h-286v201h-230v102h230v125h-230v102h230v123l-406 883h320l161 -403q51 -125 70 -236h4q19 111 70 236l162 403h311z" />
    <glyph glyph-name="brokenbar" unicode="&#xa6;" horiz-adv-x="512" 
d="M154 -358v716h204v-716h-204zM358 1382v-716h-204v716h204z" />
    <glyph glyph-name="section" unicode="&#xa7;" 
d="M625 655l-234 191q-40 -17 -68 -64.5t-6 -105.5q20 -54 60 -82l252 -205q34 19 56 54.5t22 74.5q0 41 -20.5 70.5t-61.5 66.5zM111 25h256q-2 -93 30 -142t119 -49q44 0 78 28.5t43 71.5q23 105 -119 211l-244 191q-56 44 -88 74.5t-60 72t-39 90.5t-11 115
q0 92 44.5 170.5t131.5 126.5q-60 43 -82.5 101.5t-22.5 154.5q0 62 24 119.5t70 106t122.5 77.5t173.5 29q171 0 270.5 -96t89.5 -265h-252q6 69 -24 113q-37 43 -105 43q-51 0 -85 -28t-34 -85q0 -51 23.5 -85t71.5 -72l280 -221q89 -67 132.5 -140.5t43.5 -177.5
q0 -92 -45 -171.5t-125 -129.5q47 -33 82 -116.5t35 -157.5q0 -103 -57.5 -186.5t-149 -128t-194.5 -44.5q-152 0 -243.5 68t-125.5 184q-5 17 -8 38.5t-3.5 34t-1.5 40t-1 35.5z" />
    <glyph glyph-name="dieresis" unicode="&#xa8;" horiz-adv-x="681" 
d="M270 1319h-260v235h260v-235zM672 1319h-262v235h262v-235z" />
    <glyph glyph-name="copyright" unicode="&#xa9;" horiz-adv-x="1699" 
d="M852 1573q218 0 403 -107t292.5 -291.5t107.5 -402.5q0 -221 -107.5 -407t-292 -294t-403.5 -108q-164 0 -313.5 64t-257.5 172t-172 258t-64 315q0 218 108 402.5t294 291.5t405 107zM852 117q175 0 325 87.5t238 238.5t88 329q0 176 -88 325.5t-238 236.5t-325 87
q-133 0 -254.5 -51.5t-209 -138.5t-139.5 -207t-52 -252q0 -133 52 -254.5t139.5 -209t209 -139.5t254.5 -52zM1079 627h183q-17 -143 -124.5 -228.5t-252.5 -85.5q-131 0 -233.5 62t-157 167.5t-54.5 235.5q0 203 120 333t321 130q148 0 251.5 -81t129.5 -224h-183
q-13 74 -67.5 116t-132.5 42q-122 0 -190 -91.5t-68 -220.5q0 -79 30 -151.5t92 -121t142 -48.5q75 0 132.5 47t61.5 119z" />
    <glyph glyph-name="ordfeminine" unicode="&#xaa;" horiz-adv-x="614" 
d="M387 1151v76q-24 -15 -56.5 -33.5t-45.5 -26.5t-29.5 -21t-22 -24t-10 -27.5t-4.5 -39.5q0 -43 18 -66.5t62 -23.5q24 0 41.5 10t26 23t13 36t5.5 39t1 42t1 36zM215 1350h-164q-2 109 54 166t208 57q68 0 116.5 -13.5t73.5 -32.5t39 -49t17 -53.5t2 -56.5v-410
q0 -53 14 -96h-163q-18 29 -11 70h-4q-22 -39 -63.5 -63.5t-87.5 -24.5q-104 0 -152.5 50t-48.5 157q0 54 16.5 93t58 67.5t69.5 41.5t94 38q4 2 6 2.5t5.5 2t6.5 2.5q56 22 76 48.5t10 68.5q-11 43 -82 43q-54 0 -72 -27.5t-18 -80.5z" />
    <glyph glyph-name="guillemotleft" unicode="&#xab;" 
d="M473 127l-321 291v209l321 288v-229l-192 -162l192 -166v-231zM858 127l-326 291v209l326 288v-229l-196 -162l196 -166v-231z" />
    <glyph glyph-name="logicalnot" unicode="&#xac;" 
d="M748 215v381h-695v225h920v-606h-225z" />
    <glyph glyph-name="registered" unicode="&#xae;" horiz-adv-x="1699" 
d="M852 -37q-164 0 -313.5 64t-257.5 172t-172 257.5t-64 313.5q0 217 108 402t294 293t405 108q217 0 402 -108t293 -293t108 -402q0 -219 -108 -405t-293 -294t-402 -108zM852 115q177 0 327 87t237 238t87 330q0 133 -51.5 253.5t-138.5 207.5t-207.5 138.5t-253.5 51.5
t-254.5 -51.5t-209 -138.5t-139.5 -207.5t-52 -253.5q0 -134 52 -255.5t139.5 -209t209 -139t254.5 -51.5zM1040 698l211 -368h-198l-193 368h-170v-368h-170v870h420q167 0 236 -43q102 -67 102 -225q0 -115 -59.5 -170.5t-178.5 -63.5zM690 827h254q80 -2 122 25.5
t42 105.5q0 27 -8.5 47.5t-27 32t-35.5 19t-45.5 10.5t-45 3.5t-45.5 0.5h-211v-244z" />
    <glyph glyph-name="macron" unicode="&#xaf;" horiz-adv-x="681" 
d="M696 1364h-708v152h708v-152z" />
    <glyph glyph-name="macron" unicode="&#x2c9;" horiz-adv-x="681" 
d="M696 1364h-708v152h708v-152z" />
    <glyph glyph-name="degree" unicode="&#xb0;" horiz-adv-x="819" 
d="M717 1229q0 -127 -90.5 -217t-216.5 -90q-128 0 -218 90t-90 217q-1 126 89.5 216.5t218.5 90.5q126 0 216.5 -90.5t90.5 -216.5zM264 1229q0 -61 43 -103.5t105 -42.5q60 0 101.5 42.5t41.5 103.5q0 60 -42 102.5t-103 42.5q-60 0 -103.5 -42.5t-42.5 -102.5z" />
    <glyph glyph-name="plusminus" unicode="&#xb1;" 
d="M399 776v275h226v-275h348v-225h-348v-275h-226v275h-346v225h346zM53 -31v226h920v-226h-920z" />
    <glyph glyph-name="twosuperior" unicode="&#xb2;" horiz-adv-x="614" 
d="M469 1049l-147 -140q-95 -90 -97 -159h348v-136h-546q5 98 16 156q20 107 176 260l90 88q37 37 52 54.5t27.5 49t12.5 72.5q0 111 -90 111q-70 0 -86 -45q-5 -12 -8.5 -24.5t-4.5 -28.5t-1.5 -24.5t0 -28.5t0.5 -25h-174v26q0 28 0.5 42t5.5 49t14.5 56.5t30 50.5
t49.5 46t76 29t106 12q120 -2 194.5 -66.5t74.5 -173.5q0 -138 -119 -251z" />
    <glyph glyph-name="threesuperior" unicode="&#xb3;" horiz-adv-x="614" 
d="M215 1038v136q10 1 29.5 1t31.5 0.5t28 3t28 7.5q35 16 46 43.5t11 68.5q0 105 -88 105q-36 0 -62.5 -17t-27.5 -57v-63h-174q-6 133 55 200q66 72 207 72q137 0 203.5 -62.5t66.5 -175.5q0 -69 -31.5 -124.5t-97.5 -65.5v-4q69 -6 111 -62.5t39 -158.5q0 -291 -289 -291
q-74 0 -128.5 19.5t-82 47t-43.5 67.5t-19.5 70t-2.5 66v54h174q0 -9 1 -39.5t2 -44.5t7 -38t16 -36t30 -21.5t48 -9.5q21 0 37 5.5t26.5 12.5t18 21.5t11 25t5.5 31.5t2 33v36v9q0 75 -20 98q-35 37 -168 37z" />
    <glyph glyph-name="acute" unicode="&#xb4;" horiz-adv-x="681" 
d="M170 1288l192 299h318l-303 -299h-207z" />
    <glyph glyph-name="mu" unicode="&#xb5;" 
d="M883 0h-254v172h-4q-66 -214 -240 -162v-397h-266v1542h266v-790q0 -40 0.5 -55.5t7 -46.5t19.5 -52q34 -37 82 -37q26 0 46 9t33 20.5t21.5 34.5t13 38t6.5 45.5t2 42.5v42v749h267v-1155z" />
    <glyph glyph-name="mu" unicode="&#x3bc;" 
d="M883 0h-254v172h-4q-66 -214 -240 -162v-397h-266v1542h266v-790q0 -40 0.5 -55.5t7 -46.5t19.5 -52q34 -37 82 -37q26 0 46 9t33 20.5t21.5 34.5t13 38t6.5 45.5t2 42.5v42v749h267v-1155z" />
    <glyph glyph-name="paragraph" unicode="&#xb6;" horiz-adv-x="1126" 
d="M750 -238v1532h-140v-1532h-241v1059q-155 0 -238.5 95.5t-83.5 254.5q0 198 103.5 281.5t306.5 83.5h620v-242h-86v-1532h-241z" />
    <glyph glyph-name="periodcentered" unicode="&#xb7;" horiz-adv-x="681" 
d="M207 645h270v-270h-270v270z" />
    <glyph glyph-name="periodcentered" unicode="&#x2219;" horiz-adv-x="681" 
d="M207 645h270v-270h-270v270z" />
    <glyph glyph-name="cedilla" unicode="&#xb8;" horiz-adv-x="681" 
d="M80 -416l39 86q106 -32 176 -32q37 0 66.5 28.5t23.5 65.5q-10 38 -41 49q-48 23 -133 -6l-43 41l121 184h108l-86 -125l4 -4q24 12 64 12q90 0 139 -49q45 -34 45 -108q0 -44 -26 -95q-54 -68 -142 -88.5t-182 -1.5q-26 7 -72.5 23t-60.5 20z" />
    <glyph glyph-name="onesuperior" unicode="&#xb9;" horiz-adv-x="614" 
d="M328 614v639h-226v123q70 1 121 13.5t93 49t61 97.5h137v-922h-186z" />
    <glyph glyph-name="ordmasculine" unicode="&#xba;" horiz-adv-x="614" 
d="M217 1327v-231q0 -25 0.5 -38t5 -33.5t13.5 -31t26.5 -18.5t42.5 -8q26 0 44 8t27 18.5t13.5 31t5 33.5t0.5 38v231q0 70 -16 96.5t-74 26.5t-73 -26t-15 -97zM307 1573q54 0 95.5 -10.5t69 -24t46 -45t28.5 -55.5t15 -74t6 -82t2 -98q0 -77 -5.5 -128.5t-21.5 -95.5
t-45 -68t-75 -36.5t-113 -11.5q-85 -1 -137.5 17t-80.5 63t-37.5 104t-8.5 156q0 89 2.5 134t15.5 103.5t40 85t77.5 46.5t126.5 20z" />
    <glyph glyph-name="guillemotright" unicode="&#xbb;" 
d="M166 127v231l196 174l-196 154v229l326 -288v-209zM551 127v231l194 174l-194 154v229l321 -288v-209z" />
    <glyph glyph-name="onequarter" unicode="&#xbc;" horiz-adv-x="1536" 
d="M1034 322h187v374h-4zM1200 907h207v-585h86v-136h-86v-186h-186v186h-324v136zM422 0h-154l871 1511h153zM266 614v639h-225v123q52 1 92.5 8.5t77.5 24.5t63.5 49t40.5 78h138v-922h-187z" />
    <glyph glyph-name="onehalf" unicode="&#xbd;" horiz-adv-x="1536" 
d="M375 0h-154l871 1511h153zM250 614v639h-225v123q52 1 92.5 8.5t77.5 24.5t63.5 49t40.5 78h137v-922h-186zM1395 434l-148 -139q-94 -89 -96 -160h348v-135h-547q5 90 17 156q20 107 176 260l90 88q37 37 52 54.5t27.5 49t12.5 72.5q0 111 -90 111q-69 0 -86 -46
q-5 -12 -8.5 -24.5t-4.5 -28.5t-1.5 -24.5t0 -28.5t0.5 -25h-174v27q0 28 0.5 42t5.5 49t14.5 56.5t30 50.5t49.5 46t76 29t106 12q120 -2 194 -66.5t74 -173.5q0 -140 -118 -252z" />
    <glyph glyph-name="threequarters" unicode="&#xbe;" horiz-adv-x="1536" 
d="M1055 322h186v374h-4zM1221 907h206v-585h86v-136h-86v-186h-186v186h-323v136zM479 0h-153l870 1511h154zM215 1038v136q10 1 29.5 1t31.5 0.5t28 3t28 7.5q35 16 46 43.5t11 68.5q0 105 -88 105q-36 0 -62.5 -17t-27.5 -57v-63h-174q-6 133 55 200q66 72 207 72
q137 0 203.5 -62.5t66.5 -175.5q0 -69 -31.5 -124.5t-97.5 -65.5v-4q69 -6 111 -62.5t39 -158.5q0 -291 -289 -291q-74 0 -128.5 19.5t-82 47t-43.5 67.5t-19.5 70t-2.5 66v54h174q0 -9 1 -39.5t2 -44.5t7 -38t16 -36t30 -21.5t48 -9.5q21 0 37 5.5t26.5 12.5t18 21.5t11 25
t5.5 31.5t2 33v36v9q0 75 -20 98q-35 37 -168 37z" />
    <glyph glyph-name="questiondown" unicode="&#xbf;" 
d="M664 51h254q12 -221 -92.5 -330.5t-307.5 -109.5q-182 0 -288.5 102t-106.5 279q0 110 31.5 183t109.5 171q25 25 71 77.5t71 78.5q73 90 73 270h240q2 -47 -6 -141q-5 -69 -29 -129.5t-48 -93.5t-75 -94.5t-76 -94.5q-47 -65 -63 -109t-16 -120q0 -89 27 -127.5
t89 -38.5q88 0 115 47q14 25 19 54t5.5 70t2.5 56zM723 922h-262v264h262v-264z" />
    <glyph glyph-name="Agrave" unicode="&#xc0;" horiz-adv-x="1138" 
d="M326 0h-308l367 1536h387l348 -1536h-307l-76 389h-336zM532 1051l-86 -437h246l-78 437q-10 52 -28 213q-1 21 -11 102h-4q-8 -65 -10 -102q-17 -149 -29 -213zM231 1968h318l192 -299h-206z" />
    <glyph glyph-name="Aacute" unicode="&#xc1;" horiz-adv-x="1138" 
d="M326 0h-308l367 1536h387l348 -1536h-307l-76 389h-336zM532 1051l-86 -437h246l-78 437q-10 52 -28 213q-1 21 -11 102h-4q-8 -65 -10 -102q-17 -149 -29 -213zM399 1669l193 299h317l-303 -299h-207z" />
    <glyph glyph-name="Acircumflex" unicode="&#xc2;" horiz-adv-x="1138" 
d="M326 0h-308l367 1536h387l348 -1536h-307l-76 389h-336zM532 1051l-86 -437h246l-78 437q-10 52 -28 213q-1 21 -11 102h-4q-8 -65 -10 -102q-17 -149 -29 -213zM420 1958h256l235 -299h-233l-129 168l-131 -168h-230z" />
    <glyph glyph-name="Atilde" unicode="&#xc3;" horiz-adv-x="1138" 
d="M326 0h-308l367 1536h387l348 -1536h-307l-76 389h-336zM532 1051l-86 -437h246l-78 437q-10 52 -28 213q-1 21 -11 102h-4q-8 -65 -10 -102q-17 -149 -29 -213zM813 1905h133q-13 -74 -39.5 -125.5t-61.5 -76.5t-68 -35.5t-70 -10.5q-35 0 -181 45q-1 0 -13.5 4.5
t-15.5 5.5l-15 5t-16 5t-15 3.5t-16.5 2.5t-14.5 0.5t-15.5 -1t-14 -3.5t-13.5 -6q-8 -4 -15.5 -11t-12.5 -15t-10 -16.5t-7.5 -15.5t-5.5 -12l-2 -6h-127q4 61 28.5 110.5t59 79.5t72.5 46t73 16q13 0 24.5 -1t19.5 -1.5t19.5 -3t16.5 -3.5t18.5 -5.5t16.5 -6t20 -8
t21 -7.5q105 -39 125 -39q80 0 102 86z" />
    <glyph glyph-name="Adieresis" unicode="&#xc4;" horiz-adv-x="1138" 
d="M326 0h-308l367 1536h387l348 -1536h-307l-76 389h-336zM532 1051l-86 -437h246l-78 437q-10 52 -28 213q-1 21 -11 102h-4q-8 -65 -10 -102q-17 -149 -29 -213zM500 1700h-260v235h260v-235zM901 1700h-262v235h262v-235z" />
    <glyph glyph-name="Aring" unicode="&#xc5;" horiz-adv-x="1138" 
d="M326 0h-308l367 1536h387l348 -1536h-307l-76 389h-336zM532 1051l-86 -437h246l-78 437q-10 52 -28 213q-1 21 -11 102h-4q-8 -65 -10 -102q-17 -149 -29 -213zM571 1593q-89 0 -154 64t-65 153t65 154.5t154 65.5q90 0 153.5 -65t63.5 -155q0 -91 -63 -154t-154 -63z
M571 1929q-49 0 -83.5 -34.5t-34.5 -84.5q0 -47 36 -81.5t82 -34.5t82.5 35.5t36.5 80.5q0 47 -36 83t-83 36z" />
    <glyph glyph-name="AE" unicode="&#xc6;" horiz-adv-x="1593" 
d="M748 0v393h-353l-133 -393h-307l590 1536h991v-225h-502v-389h469v-226h-469v-471h502v-225h-788zM748 1251h-56l-219 -633h275v633z" />
    <glyph glyph-name="Ccedilla" unicode="&#xc7;" horiz-adv-x="1138" 
d="M434 -184l98 151q-65 5 -118 20.5t-93.5 37t-72 55.5t-53 68t-37 83.5t-24.5 94t-13.5 107t-6 115t-1.5 124.5v219q3 99 7.5 162t17 143t33 129t57.5 101.5t88 81t126 47t172 18.5q390 -6 420 -397q8 -78 6 -117h-282q-2 14 -4.5 46t-5 53.5t-8 52t-15 51t-23.5 40
t-36.5 29.5t-51.5 10q-43 0 -77.5 -13.5t-55.5 -36t-36.5 -52.5t-22 -63.5t-11 -68t-3.5 -67t0 -60.5v-26v-426q0 -40 2 -69.5t7.5 -72.5t19.5 -73t35.5 -59t58 -44t83.5 -15q33 0 57.5 13.5t39.5 40t25 53.5t14 66t6 66t2.5 63.5t1.5 49.5h289q-1 -15 -3.5 -44.5
t-3.5 -43.5q-4 -86 -18 -155.5t-43.5 -132.5t-73 -106.5t-111.5 -70t-155 -29.5l-63 -90l4 -4q24 12 63 12q90 0 139 -49q45 -34 45 -108q0 -44 -26 -95q-54 -68 -142 -88.5t-182 -1.5q-26 7 -72.5 23t-60.5 20l39 86q106 -32 176 -32q37 0 66.5 28.5t23.5 65.5
q-10 38 -41 49q-48 23 -133 -6z" />
    <glyph glyph-name="Egrave" unicode="&#xc8;" 
d="M938 0h-807v1536h807v-225h-520v-387h479v-226h-479v-473h520v-225zM174 1968h318l192 -299h-207z" />
    <glyph glyph-name="Eacute" unicode="&#xc9;" 
d="M938 0h-807v1536h807v-225h-520v-387h479v-226h-479v-473h520v-225zM342 1669l193 299h317l-303 -299h-207z" />
    <glyph glyph-name="Ecircumflex" unicode="&#xca;" 
d="M938 0h-807v1536h807v-225h-520v-387h479v-226h-479v-473h520v-225zM383 1958h256l235 -299h-233l-129 168l-131 -168h-229z" />
    <glyph glyph-name="Edieresis" unicode="&#xcb;" 
d="M938 0h-807v1536h807v-225h-520v-387h479v-226h-479v-473h520v-225zM442 1700h-260v235h260v-235zM844 1700h-262v235h262v-235z" />
    <glyph glyph-name="Igrave" unicode="&#xcc;" horiz-adv-x="569" 
d="M428 0h-287v1536h287v-1536zM-53 1968h317l193 -299h-207z" />
    <glyph glyph-name="Iacute" unicode="&#xcd;" horiz-adv-x="569" 
d="M428 0h-287v1536h287v-1536zM115 1669l192 299h318l-303 -299h-207z" />
    <glyph glyph-name="Icircumflex" unicode="&#xce;" horiz-adv-x="569" 
d="M428 0h-287v1536h287v-1536zM156 1958h256l235 -299h-233l-129 168l-131 -168h-230z" />
    <glyph glyph-name="Idieresis" unicode="&#xcf;" horiz-adv-x="569" 
d="M428 0h-287v1536h287v-1536zM215 1700h-260v235h260v-235zM616 1700h-262v235h262v-235z" />
    <glyph glyph-name="Eth" unicode="&#xd0;" horiz-adv-x="1251" 
d="M434 1311v-387h240v-226h-240v-473h189q38 0 68.5 9.5t52 33t37 45.5t24.5 67.5t15 76.5t8 94t2.5 100t0.5 113v4v4q0 76 -0.5 113t-2.5 100t-8 94t-15 76.5t-24.5 67.5t-37 45.5t-52 33t-68.5 9.5h-189zM147 0v698h-118v226h118v612h598q71 0 154.5 -39.5t142.5 -134.5
q47 -76 65.5 -202.5t18.5 -328.5q0 -274 -19 -401q-43 -289 -216 -389q-70 -41 -213 -41h-531z" />
    <glyph glyph-name="Ntilde" unicode="&#xd1;" horiz-adv-x="1251" 
d="M825 1235v301h287v-1536h-299l-223 547q-103 246 -205 610h-4q24 -311 31 -438q14 -270 14 -430v-289h-287v1536h297l223 -559q105 -252 205 -610h4q-18 244 -28 436q-15 276 -15 432zM868 1905h133q-13 -74 -39.5 -125.5t-61.5 -76.5t-68 -35.5t-70 -10.5q-34 0 -180 45
q-79 28 -112 26q-22 -1 -38 -10q-8 -4 -15.5 -11t-12.5 -15t-10 -16.5t-7.5 -15.5t-4.5 -12l-3 -6h-127q4 61 28.5 110.5t59 79.5t72.5 46t73 16q13 0 24.5 -1t19.5 -1.5t19.5 -3t16.5 -3.5t18.5 -5.5t16.5 -6t20 -8t21 -7.5q105 -39 125 -39q80 0 102 86z" />
    <glyph glyph-name="Ograve" unicode="&#xd2;" horiz-adv-x="1251" 
d="M125 672v219q3 99 7.5 162t17 142.5t33.5 129t57.5 102t88 81t126.5 47t172 18.5t172 -18.5t126 -47t88 -81t57.5 -101.5t33 -129t17 -143t7.5 -162v-219q0 -78 -1.5 -133t-7.5 -121t-16.5 -112.5t-28.5 -97.5t-44 -85t-63.5 -66.5t-86 -51.5t-112.5 -30.5t-141 -11.5
q-99 0 -176 19t-129.5 49t-89.5 83t-58 105.5t-32 133.5t-14 149.5t-3 169.5zM420 954v-426q0 -33 1 -58.5t5.5 -62.5t12.5 -64t23.5 -56.5t37 -48t54 -31t73.5 -12.5q43 0 76 13t54.5 31.5t37 51t23 59t11.5 69t4.5 67.5t0.5 67v393q0 158 -21 234q-44 161 -186 161
q-44 0 -78 -13.5t-55.5 -36t-37 -52.5t-22 -64t-11 -68.5t-3.5 -67t0 -60.5v-25zM287 1968h317l193 -299h-207z" />
    <glyph glyph-name="Oacute" unicode="&#xd3;" horiz-adv-x="1251" 
d="M125 672v219q3 99 7.5 162t17 142.5t33.5 129t57.5 102t88 81t126.5 47t172 18.5t172 -18.5t126 -47t88 -81t57.5 -101.5t33 -129t17 -143t7.5 -162v-219q0 -78 -1.5 -133t-7.5 -121t-16.5 -112.5t-28.5 -97.5t-44 -85t-63.5 -66.5t-86 -51.5t-112.5 -30.5t-141 -11.5
q-99 0 -176 19t-129.5 49t-89.5 83t-58 105.5t-32 133.5t-14 149.5t-3 169.5zM420 954v-426q0 -33 1 -58.5t5.5 -62.5t12.5 -64t23.5 -56.5t37 -48t54 -31t73.5 -12.5q43 0 76 13t54.5 31.5t37 51t23 59t11.5 69t4.5 67.5t0.5 67v393q0 158 -21 234q-44 161 -186 161
q-44 0 -78 -13.5t-55.5 -36t-37 -52.5t-22 -64t-11 -68.5t-3.5 -67t0 -60.5v-25zM455 1669l192 299h318l-303 -299h-207z" />
    <glyph glyph-name="Ocircumflex" unicode="&#xd4;" horiz-adv-x="1251" 
d="M125 672v219q3 99 7.5 162t17 142.5t33.5 129t57.5 102t88 81t126.5 47t172 18.5t172 -18.5t126 -47t88 -81t57.5 -101.5t33 -129t17 -143t7.5 -162v-219q0 -78 -1.5 -133t-7.5 -121t-16.5 -112.5t-28.5 -97.5t-44 -85t-63.5 -66.5t-86 -51.5t-112.5 -30.5t-141 -11.5
q-99 0 -176 19t-129.5 49t-89.5 83t-58 105.5t-32 133.5t-14 149.5t-3 169.5zM420 954v-426q0 -33 1 -58.5t5.5 -62.5t12.5 -64t23.5 -56.5t37 -48t54 -31t73.5 -12.5q43 0 76 13t54.5 31.5t37 51t23 59t11.5 69t4.5 67.5t0.5 67v393q0 158 -21 234q-44 161 -186 161
q-44 0 -78 -13.5t-55.5 -36t-37 -52.5t-22 -64t-11 -68.5t-3.5 -67t0 -60.5v-25zM496 1958h256l235 -299h-233l-129 168l-131 -168h-230z" />
    <glyph glyph-name="Otilde" unicode="&#xd5;" horiz-adv-x="1251" 
d="M125 672v219q3 99 7.5 162t17 142.5t33.5 129t57.5 102t88 81t126.5 47t172 18.5t172 -18.5t126 -47t88 -81t57.5 -101.5t33 -129t17 -143t7.5 -162v-219q0 -78 -1.5 -133t-7.5 -121t-16.5 -112.5t-28.5 -97.5t-44 -85t-63.5 -66.5t-86 -51.5t-112.5 -30.5t-141 -11.5
q-99 0 -176 19t-129.5 49t-89.5 83t-58 105.5t-32 133.5t-14 149.5t-3 169.5zM420 954v-426q0 -33 1 -58.5t5.5 -62.5t12.5 -64t23.5 -56.5t37 -48t54 -31t73.5 -12.5q43 0 76 13t54.5 31.5t37 51t23 59t11.5 69t4.5 67.5t0.5 67v393q0 158 -21 234q-44 161 -186 161
q-44 0 -78 -13.5t-55.5 -36t-37 -52.5t-22 -64t-11 -68.5t-3.5 -67t0 -60.5v-25zM868 1905h133q-13 -74 -39.5 -125.5t-61.5 -76.5t-68 -35.5t-70 -10.5q-34 0 -180 45q-79 28 -112 26q-22 -1 -38 -10q-8 -4 -15.5 -11t-12.5 -15t-10 -16.5t-7.5 -15.5t-4.5 -12l-3 -6h-127
q4 61 28.5 110.5t59 79.5t72.5 46t73 16q13 0 24.5 -1t19.5 -1.5t19.5 -3t16.5 -3.5t18.5 -5.5t16.5 -6t20 -8t21 -7.5q105 -39 125 -39q80 0 102 86z" />
    <glyph glyph-name="Odieresis" unicode="&#xd6;" horiz-adv-x="1251" 
d="M125 672v219q3 99 7.5 162t17 142.5t33.5 129t57.5 102t88 81t126.5 47t172 18.5t172 -18.5t126 -47t88 -81t57.5 -101.5t33 -129t17 -143t7.5 -162v-219q0 -78 -1.5 -133t-7.5 -121t-16.5 -112.5t-28.5 -97.5t-44 -85t-63.5 -66.5t-86 -51.5t-112.5 -30.5t-141 -11.5
q-99 0 -176 19t-129.5 49t-89.5 83t-58 105.5t-32 133.5t-14 149.5t-3 169.5zM420 954v-426q0 -33 1 -58.5t5.5 -62.5t12.5 -64t23.5 -56.5t37 -48t54 -31t73.5 -12.5q43 0 76 13t54.5 31.5t37 51t23 59t11.5 69t4.5 67.5t0.5 67v393q0 158 -21 234q-44 161 -186 161
q-44 0 -78 -13.5t-55.5 -36t-37 -52.5t-22 -64t-11 -68.5t-3.5 -67t0 -60.5v-25zM555 1700h-260v235h260v-235zM956 1700h-262v235h262v-235z" />
    <glyph glyph-name="multiply" unicode="&#xd7;" 
d="M348 510l-295 295l160 160l295 -295l305 305l160 -160l-305 -305l305 -305l-160 -160l-305 305l-295 -295l-160 160z" />
    <glyph glyph-name="Oslash" unicode="&#xd8;" horiz-adv-x="1251" 
d="M1184 1524l-119 -189q11 -23 20 -50.5t15 -50t10.5 -57.5t7 -54.5t5 -61t3 -55.5t1.5 -60t1 -55v-219q0 -78 -1.5 -133t-7.5 -121t-16.5 -112.5t-28.5 -97.5t-44 -85t-63.5 -66.5t-86 -51.5t-112.5 -30.5t-141 -11.5q-135 0 -215.5 24t-143.5 87l-94 -152l-100 62
l121 192q-70 141 -70 496v219q3 99 7.5 162t17 142.5t33.5 129t57.5 102t88 81t126.5 47t172 18.5q132 0 213 -24t151 -99l90 145zM422 563l383 615q-5 75 -44.5 119t-133.5 44q-51 0 -88 -15.5t-59 -53.5t-35 -69.5t-18 -97t-6 -101.5t-1 -115v-41q0 -59 -1 -126.5
t-1.5 -93.5t0.5 -65h4zM829 979l-389 -627q15 -77 57 -117t130 -40q34 0 62 8t48.5 23t36.5 35t25.5 44.5t17 52t10.5 57t5.5 59t1.5 58.5t0 57v27q0 39 1 113t1 135t-2 115h-5z" />
    <glyph glyph-name="Ugrave" unicode="&#xd9;" horiz-adv-x="1251" 
d="M827 489v1047h287v-1071q0 -132 -23 -222.5t-78.5 -155t-149.5 -94.5t-234 -30q-141 0 -236 30t-151 94.5t-79.5 155t-23.5 222.5v1071h287v-1047q0 -54 2.5 -88.5t14 -77.5t32 -68t60.5 -42.5t96 -17.5q54 0 91.5 17.5t58 42.5t31 68t13 78t2.5 88zM287 1968h317
l193 -299h-207z" />
    <glyph glyph-name="Uacute" unicode="&#xda;" horiz-adv-x="1251" 
d="M827 489v1047h287v-1071q0 -132 -23 -222.5t-78.5 -155t-149.5 -94.5t-234 -30q-141 0 -236 30t-151 94.5t-79.5 155t-23.5 222.5v1071h287v-1047q0 -54 2.5 -88.5t14 -77.5t32 -68t60.5 -42.5t96 -17.5q54 0 91.5 17.5t58 42.5t31 68t13 78t2.5 88zM455 1669l192 299
h318l-303 -299h-207z" />
    <glyph glyph-name="Ucircumflex" unicode="&#xdb;" horiz-adv-x="1251" 
d="M827 489v1047h287v-1071q0 -132 -23 -222.5t-78.5 -155t-149.5 -94.5t-234 -30q-141 0 -236 30t-151 94.5t-79.5 155t-23.5 222.5v1071h287v-1047q0 -54 2.5 -88.5t14 -77.5t32 -68t60.5 -42.5t96 -17.5q54 0 91.5 17.5t58 42.5t31 68t13 78t2.5 88zM496 1958h256
l235 -299h-233l-129 168l-131 -168h-230z" />
    <glyph glyph-name="Udieresis" unicode="&#xdc;" horiz-adv-x="1251" 
d="M827 489v1047h287v-1071q0 -132 -23 -222.5t-78.5 -155t-149.5 -94.5t-234 -30q-141 0 -236 30t-151 94.5t-79.5 155t-23.5 222.5v1071h287v-1047q0 -54 2.5 -88.5t14 -77.5t32 -68t60.5 -42.5t96 -17.5q54 0 91.5 17.5t58 42.5t31 68t13 78t2.5 88zM555 1700h-260v235
h260v-235zM956 1700h-262v235h262v-235z" />
    <glyph glyph-name="Yacute" unicode="&#xdd;" horiz-adv-x="1138" 
d="M338 1536l162 -403q51 -124 67 -236h4q5 29 12 58.5t13 50t17.5 51t16.5 43.5t19 46t17 42l137 348h313l-405 -883v-653h-287v653l-399 883h313zM399 1669l193 299h317l-303 -299h-207z" />
    <glyph glyph-name="Thorn" unicode="&#xde;" horiz-adv-x="1138" 
d="M426 1069v-442h154q114 0 161 51t47 170t-47 170t-161 51h-154zM139 0v1536h287v-242h274q87 0 154.5 -25t110 -66.5t69.5 -100.5t38 -121t11 -133q0 -111 -35 -198.5t-93.5 -140.5t-129.5 -80.5t-149 -27.5h-250v-401h-287z" />
    <glyph glyph-name="germandbls" unicode="&#xdf;" 
d="M725 893v-4q99 -25 141.5 -131t44.5 -299q1 -89 -9.5 -165t-35.5 -147.5t-74.5 -118t-119.5 -57.5q-79 -13 -189 29v188q28 -12 60 -12q102 2 102 205l-2 240q0 77 -32 115.5t-109 41.5v195q32 3 46.5 5.5t33.5 10.5t26.5 22.5t13 40t5.5 64.5v125q0 56 -30 91.5
t-89 35.5q-29 0 -50 -10.5t-33.5 -32t-20.5 -41.5t-11 -52t-3.5 -49.5t-0.5 -47.5v-1135h-266v1092q-1 49 0.5 84t9.5 89t22.5 92.5t43 82t69 70.5t103 45t141.5 18q80 0 144.5 -23t107 -60.5t71 -88.5t40.5 -104.5t12 -110.5q0 -244 -162 -293z" />
    <glyph glyph-name="agrave" unicode="&#xe0;" 
d="M901 0h-252q-23 47 -16 119h-4q-50 -77 -107 -111q-61 -39 -127 -39q-161 0 -235 83.5t-74 262.5q0 53 11 98t26.5 78t46 63.5t55.5 50t70 42.5t75 36t84 35q18 7 27 11q86 36 117 80t14 113q-8 36 -37 47.5t-88 11.5q-85 0 -113 -41t-26 -127h-254q-1 70 9 123.5
t36.5 102t71 80t117 49.5t170.5 18q75 0 135 -11.5t99.5 -29.5t68.5 -46t44 -56t23.5 -65t10 -66.5t0.5 -67.5v-682q0 -79 22 -162zM612 483v125q-21 -14 -65.5 -42.5t-81.5 -54t-68 -50.5q-45 -38 -45 -139q0 -72 28 -110t97 -38q38 0 64.5 16t39.5 38t20.5 59.5t8 65
t1 70.5t1.5 60zM174 1587h318l192 -299h-207z" />
    <glyph glyph-name="aacute" unicode="&#xe1;" 
d="M901 0h-252q-23 47 -16 119h-4q-50 -77 -107 -111q-61 -39 -127 -39q-161 0 -235 83.5t-74 262.5q0 53 11 98t26.5 78t46 63.5t55.5 50t70 42.5t75 36t84 35q18 7 27 11q86 36 117 80t14 113q-8 36 -37 47.5t-88 11.5q-85 0 -113 -41t-26 -127h-254q-1 70 9 123.5
t36.5 102t71 80t117 49.5t170.5 18q75 0 135 -11.5t99.5 -29.5t68.5 -46t44 -56t23.5 -65t10 -66.5t0.5 -67.5v-682q0 -79 22 -162zM612 483v125q-21 -14 -65.5 -42.5t-81.5 -54t-68 -50.5q-45 -38 -45 -139q0 -72 28 -110t97 -38q38 0 64.5 16t39.5 38t20.5 59.5t8 65
t1 70.5t1.5 60zM342 1288l193 299h317l-303 -299h-207z" />
    <glyph glyph-name="acircumflex" unicode="&#xe2;" 
d="M901 0h-252q-23 47 -16 119h-4q-50 -77 -107 -111q-61 -39 -127 -39q-161 0 -235 83.5t-74 262.5q0 53 11 98t26.5 78t46 63.5t55.5 50t70 42.5t75 36t84 35q18 7 27 11q86 36 117 80t14 113q-8 36 -37 47.5t-88 11.5q-85 0 -113 -41t-26 -127h-254q-1 70 9 123.5
t36.5 102t71 80t117 49.5t170.5 18q75 0 135 -11.5t99.5 -29.5t68.5 -46t44 -56t23.5 -65t10 -66.5t0.5 -67.5v-682q0 -79 22 -162zM612 483v125q-21 -14 -65.5 -42.5t-81.5 -54t-68 -50.5q-45 -38 -45 -139q0 -72 28 -110t97 -38q38 0 64.5 16t39.5 38t20.5 59.5t8 65
t1 70.5t1.5 60zM383 1577h256l235 -299h-233l-129 168l-131 -168h-229z" />
    <glyph glyph-name="atilde" unicode="&#xe3;" 
d="M901 0h-252q-23 47 -16 119h-4q-50 -77 -107 -111q-61 -39 -127 -39q-161 0 -235 83.5t-74 262.5q0 53 11 98t26.5 78t46 63.5t55.5 50t70 42.5t75 36t84 35q18 7 27 11q86 36 117 80t14 113q-8 36 -37 47.5t-88 11.5q-85 0 -113 -41t-26 -127h-254q-1 70 9 123.5
t36.5 102t71 80t117 49.5t170.5 18q75 0 135 -11.5t99.5 -29.5t68.5 -46t44 -56t23.5 -65t10 -66.5t0.5 -67.5v-682q0 -79 22 -162zM612 483v125q-21 -14 -65.5 -42.5t-81.5 -54t-68 -50.5q-45 -38 -45 -139q0 -72 28 -110t97 -38q38 0 64.5 16t39.5 38t20.5 59.5t8 65
t1 70.5t1.5 60zM756 1524h133q-11 -60 -31 -105t-44 -72t-53.5 -43.5t-56 -22t-55.5 -5.5q-34 0 -180 45q-79 28 -112 26q-22 -1 -38 -10q-8 -4 -15.5 -11t-12.5 -14.5t-10 -16.5t-7.5 -15.5t-5.5 -11.5l-2 -6h-127q4 61 28.5 110.5t59.5 79t73 45.5t73 16q14 0 26 -0.5
t25 -3t18.5 -3t21 -6t18.5 -6t22.5 -8.5t23.5 -9q105 -39 125 -39q81 0 103 86z" />
    <glyph glyph-name="adieresis" unicode="&#xe4;" 
d="M901 0h-252q-23 47 -16 119h-4q-50 -77 -107 -111q-61 -39 -127 -39q-161 0 -235 83.5t-74 262.5q0 53 11 98t26.5 78t46 63.5t55.5 50t70 42.5t75 36t84 35q18 7 27 11q86 36 117 80t14 113q-8 36 -37 47.5t-88 11.5q-85 0 -113 -41t-26 -127h-254q-1 70 9 123.5
t36.5 102t71 80t117 49.5t170.5 18q75 0 135 -11.5t99.5 -29.5t68.5 -46t44 -56t23.5 -65t10 -66.5t0.5 -67.5v-682q0 -79 22 -162zM612 483v125q-21 -14 -65.5 -42.5t-81.5 -54t-68 -50.5q-45 -38 -45 -139q0 -72 28 -110t97 -38q38 0 64.5 16t39.5 38t20.5 59.5t8 65
t1 70.5t1.5 60zM442 1319h-260v235h260v-235zM844 1319h-262v235h262v-235z" />
    <glyph glyph-name="aring" unicode="&#xe5;" 
d="M901 0h-252q-23 47 -16 119h-4q-50 -77 -107 -111q-61 -39 -127 -39q-161 0 -235 83.5t-74 262.5q0 53 11 98t26.5 78t46 63.5t55.5 50t70 42.5t75 36t84 35q18 7 27 11q86 36 117 80t14 113q-8 36 -37 47.5t-88 11.5q-85 0 -113 -41t-26 -127h-254q-1 70 9 123.5
t36.5 102t71 80t117 49.5t170.5 18q75 0 135 -11.5t99.5 -29.5t68.5 -46t44 -56t23.5 -65t10 -66.5t0.5 -67.5v-682q0 -79 22 -162zM612 483v125q-21 -14 -65.5 -42.5t-81.5 -54t-68 -50.5q-45 -38 -45 -139q0 -72 28 -110t97 -38q38 0 64.5 16t39.5 38t20.5 59.5t8 65
t1 70.5t1.5 60zM483 1274q-89 0 -154 64t-65 153t65 154t154 65q90 0 153.5 -64.5t63.5 -154.5q0 -91 -63 -154t-154 -63zM483 1610q-49 0 -83.5 -34.5t-34.5 -84.5q0 -47 36 -82t82 -35t82.5 35.5t36.5 81.5q0 47 -36 83t-83 36z" />
    <glyph glyph-name="ae" unicode="&#xe6;" horiz-adv-x="1478" 
d="M360 819h-266q-3 81 27 178q59 189 379 189q154 0 266 -74q93 74 240 74q82 0 144.5 -17.5t113 -57t78.5 -111t32 -173.5v-297h-502v-102q0 -109 7 -144q20 -110 116 -110q103 0 113 111v108h268q11 -424 -381 -424q-99 0 -161 27t-117 94q-40 -62 -113 -91.5t-155 -29.5
q-178 0 -268.5 74t-90.5 250q0 96 20 157.5t64 106t129 92.5q34 19 77.5 38.5t74 31.5t62.5 29t52 33.5t32.5 41.5t12.5 58q0 58 -30.5 79t-91.5 21q-36 0 -60.5 -8.5t-38 -19.5t-21 -35.5t-9.5 -43.5t-3 -55zM606 373v233q-23 -16 -57 -36.5t-58 -34t-51 -35t-44 -43.5
t-28.5 -55.5t-11.5 -73.5q0 -83 24.5 -118.5t82.5 -35.5q76 0 110.5 50t32.5 149zM872 735h236v115q0 78 -31 104.5t-86 26.5q-104 0 -119 -131v-115z" />
    <glyph glyph-name="ccedilla" unicode="&#xe7;" horiz-adv-x="909" 
d="M311 -184l103 157q-328 22 -314 428v375q-1 95 17.5 167t50 117.5t78.5 74t99 40t116 11.5q97 0 169.5 -28.5t114 -77.5t61.5 -108t19 -126v-92h-266v129q-6 98 -92 98q-30 0 -50 -13.5t-30 -37t-15 -56t-5 -70.5v-81v-272q-3 -112 6 -170t30 -80t64 -27q28 1 45.5 12
t26.5 35.5t12.5 47t6.5 61.5v5t0.5 4.5t0.5 4.5v107h266v-107q0 -171 -71.5 -264.5t-231.5 -106.5l-67 -98l4 -4q24 12 63 12q91 0 140 -49q45 -34 45 -108q0 -42 -27 -95q-54 -68 -142 -88.5t-182 -1.5q-26 7 -72.5 23t-60.5 20l39 86q106 -32 176 -32q37 0 66.5 28.5
t23.5 65.5q-10 38 -41 49q-48 23 -133 -6z" />
    <glyph glyph-name="egrave" unicode="&#xe8;" 
d="M109 455v303q-9 205 92 316.5t297 111.5q79 0 139.5 -12t103.5 -33t73.5 -56.5t48.5 -73.5t28 -95t13 -110t3 -128v-156h-532v-168q1 -106 36 -143t103 -37q71 0 98.5 52t24.5 165h266q8 -201 -81.5 -311.5t-286.5 -110.5q-230 0 -330.5 115t-95.5 371zM375 727h266v100
q-2 88 -31 121t-108 33q-27 0 -47.5 -6t-33.5 -14.5t-22.5 -25.5t-14 -29.5t-7 -37.5t-2.5 -38.5v-42.5v-13v-47zM174 1587h318l192 -299h-207z" />
    <glyph glyph-name="eacute" unicode="&#xe9;" 
d="M109 455v303q-9 205 92 316.5t297 111.5q79 0 139.5 -12t103.5 -33t73.5 -56.5t48.5 -73.5t28 -95t13 -110t3 -128v-156h-532v-168q1 -106 36 -143t103 -37q71 0 98.5 52t24.5 165h266q8 -201 -81.5 -311.5t-286.5 -110.5q-230 0 -330.5 115t-95.5 371zM375 727h266v100
q-2 88 -31 121t-108 33q-27 0 -47.5 -6t-33.5 -14.5t-22.5 -25.5t-14 -29.5t-7 -37.5t-2.5 -38.5v-42.5v-13v-47zM342 1288l193 299h317l-303 -299h-207z" />
    <glyph glyph-name="ecircumflex" unicode="&#xea;" 
d="M109 455v303q-9 205 92 316.5t297 111.5q79 0 139.5 -12t103.5 -33t73.5 -56.5t48.5 -73.5t28 -95t13 -110t3 -128v-156h-532v-168q1 -106 36 -143t103 -37q71 0 98.5 52t24.5 165h266q8 -201 -81.5 -311.5t-286.5 -110.5q-230 0 -330.5 115t-95.5 371zM375 727h266v100
q-2 88 -31 121t-108 33q-27 0 -47.5 -6t-33.5 -14.5t-22.5 -25.5t-14 -29.5t-7 -37.5t-2.5 -38.5v-42.5v-13v-47zM383 1577h256l235 -299h-233l-129 168l-131 -168h-229z" />
    <glyph glyph-name="edieresis" unicode="&#xeb;" 
d="M109 455v303q-9 205 92 316.5t297 111.5q79 0 139.5 -12t103.5 -33t73.5 -56.5t48.5 -73.5t28 -95t13 -110t3 -128v-156h-532v-168q1 -106 36 -143t103 -37q71 0 98.5 52t24.5 165h266q8 -201 -81.5 -311.5t-286.5 -110.5q-230 0 -330.5 115t-95.5 371zM375 727h266v100
q-2 88 -31 121t-108 33q-27 0 -47.5 -6t-33.5 -14.5t-22.5 -25.5t-14 -29.5t-7 -37.5t-2.5 -38.5v-42.5v-13v-47zM442 1319h-260v235h260v-235zM844 1319h-262v235h262v-235z" />
    <glyph glyph-name="igrave" unicode="&#xec;" horiz-adv-x="569" 
d="M418 0h-266v1155h266v-1155zM-53 1587h317l193 -299h-207z" />
    <glyph glyph-name="iacute" unicode="&#xed;" horiz-adv-x="569" 
d="M418 0h-266v1155h266v-1155zM115 1288l192 299h318l-303 -299h-207z" />
    <glyph glyph-name="icircumflex" unicode="&#xee;" horiz-adv-x="569" 
d="M418 0h-266v1155h266v-1155zM133 1577h256l236 -299h-234l-129 168l-131 -168h-229z" />
    <glyph glyph-name="idieresis" unicode="&#xef;" horiz-adv-x="569" 
d="M418 0h-266v1155h266v-1155zM215 1319h-260v235h260v-235zM616 1319h-262v235h262v-235z" />
    <glyph glyph-name="eth" unicode="&#xf0;" 
d="M375 709v-332q0 -59 4 -92t17.5 -61t41.5 -39t74 -11q38 0 63 8.5t40 22t22.5 41t9.5 55.5t2 76v332q0 44 -1 66t-8 56.5t-20.5 52t-40.5 31t-67 13.5t-67 -13.5t-40.5 -31t-20.5 -52t-8 -56.5t-1 -66zM229 1274l115 90q-38 28 -141 80l178 151q84 -34 149 -82l103 82
l92 -71l-102 -82q292 -206 292 -684v-221q0 -91 -4 -158t-15 -129.5t-30 -105t-49 -78t-73 -55.5t-100 -31t-132 -11q-74 0 -131 11t-100 31t-73 55.5t-49.5 78t-30.5 105t-15 129.5t-4 158q0 316 69.5 446.5t255.5 130.5q128 0 184 -53l5 4q-17 62 -72.5 129.5
t-108.5 103.5l-120 -96z" />
    <glyph glyph-name="ntilde" unicode="&#xf1;" 
d="M391 1155v-119h4q21 47 53 79t67.5 46.5t63.5 19.5t56 5q122 0 197 -74t69 -221v-891h-266v770q0 96 -22 142t-91 49q-71 3 -102.5 -55.5t-28.5 -157.5v-748h-266v1155h266zM756 1524h133q-11 -60 -31 -105t-44 -72t-53.5 -43.5t-56 -22t-55.5 -5.5q-34 0 -180 45
q-79 28 -112 26q-22 -1 -38 -10q-8 -4 -15.5 -11t-12.5 -14.5t-10 -16.5t-7.5 -15.5t-5.5 -11.5l-2 -6h-127q4 61 28.5 110.5t59.5 79t73 45.5t73 16q14 0 26 -0.5t25 -3t18.5 -3t21 -6t18.5 -6t22.5 -8.5t23.5 -9q105 -39 125 -39q81 0 103 86z" />
    <glyph glyph-name="ograve" unicode="&#xf2;" 
d="M375 762v-385q0 -59 4 -92t18 -61t42.5 -39t76.5 -11q37 0 61 8.5t38.5 22t22 41t9.5 55.5t2 76v385q0 27 -0.5 41t-1.5 38.5t-5 38t-10 32.5t-15.5 29t-23.5 20.5t-33.5 15t-43.5 4.5q-29 0 -52 -7t-37.5 -16.5t-25 -29t-15.5 -34t-7.5 -42t-3 -43.5t-0.5 -47zM516 -31
q-75 -1 -133 9t-101 30.5t-73.5 56t-50.5 78.5t-30.5 105.5t-14.5 130t-4 158.5q0 84 1 127.5t5 112.5t11.5 105t21 87t34 77.5t51 58t70.5 46t93.5 25t119.5 10.5q83 0 146 -17.5t105.5 -40.5t71 -75.5t43.5 -92.5t22.5 -124t8.5 -137t2 -162q0 -91 -3.5 -158.5t-14.5 -130
t-30 -105.5t-49 -78.5t-72.5 -56t-99 -30.5t-130.5 -9zM174 1587h318l192 -299h-207z" />
    <glyph glyph-name="oacute" unicode="&#xf3;" 
d="M375 762v-385q0 -59 4 -92t18 -61t42.5 -39t76.5 -11q37 0 61 8.5t38.5 22t22 41t9.5 55.5t2 76v385q0 27 -0.5 41t-1.5 38.5t-5 38t-10 32.5t-15.5 29t-23.5 20.5t-33.5 15t-43.5 4.5q-29 0 -52 -7t-37.5 -16.5t-25 -29t-15.5 -34t-7.5 -42t-3 -43.5t-0.5 -47zM516 -31
q-75 -1 -133 9t-101 30.5t-73.5 56t-50.5 78.5t-30.5 105.5t-14.5 130t-4 158.5q0 84 1 127.5t5 112.5t11.5 105t21 87t34 77.5t51 58t70.5 46t93.5 25t119.5 10.5q83 0 146 -17.5t105.5 -40.5t71 -75.5t43.5 -92.5t22.5 -124t8.5 -137t2 -162q0 -91 -3.5 -158.5t-14.5 -130
t-30 -105.5t-49 -78.5t-72.5 -56t-99 -30.5t-130.5 -9zM342 1288l193 299h317l-303 -299h-207z" />
    <glyph glyph-name="ocircumflex" unicode="&#xf4;" 
d="M375 762v-385q0 -59 4 -92t18 -61t42.5 -39t76.5 -11q37 0 61 8.5t38.5 22t22 41t9.5 55.5t2 76v385q0 27 -0.5 41t-1.5 38.5t-5 38t-10 32.5t-15.5 29t-23.5 20.5t-33.5 15t-43.5 4.5q-29 0 -52 -7t-37.5 -16.5t-25 -29t-15.5 -34t-7.5 -42t-3 -43.5t-0.5 -47zM516 -31
q-75 -1 -133 9t-101 30.5t-73.5 56t-50.5 78.5t-30.5 105.5t-14.5 130t-4 158.5q0 84 1 127.5t5 112.5t11.5 105t21 87t34 77.5t51 58t70.5 46t93.5 25t119.5 10.5q83 0 146 -17.5t105.5 -40.5t71 -75.5t43.5 -92.5t22.5 -124t8.5 -137t2 -162q0 -91 -3.5 -158.5t-14.5 -130
t-30 -105.5t-49 -78.5t-72.5 -56t-99 -30.5t-130.5 -9zM383 1577h256l235 -299h-233l-129 168l-131 -168h-229z" />
    <glyph glyph-name="otilde" unicode="&#xf5;" 
d="M375 762v-385q0 -59 4 -92t18 -61t42.5 -39t76.5 -11q37 0 61 8.5t38.5 22t22 41t9.5 55.5t2 76v385q0 27 -0.5 41t-1.5 38.5t-5 38t-10 32.5t-15.5 29t-23.5 20.5t-33.5 15t-43.5 4.5q-29 0 -52 -7t-37.5 -16.5t-25 -29t-15.5 -34t-7.5 -42t-3 -43.5t-0.5 -47zM516 -31
q-75 -1 -133 9t-101 30.5t-73.5 56t-50.5 78.5t-30.5 105.5t-14.5 130t-4 158.5q0 84 1 127.5t5 112.5t11.5 105t21 87t34 77.5t51 58t70.5 46t93.5 25t119.5 10.5q83 0 146 -17.5t105.5 -40.5t71 -75.5t43.5 -92.5t22.5 -124t8.5 -137t2 -162q0 -91 -3.5 -158.5t-14.5 -130
t-30 -105.5t-49 -78.5t-72.5 -56t-99 -30.5t-130.5 -9zM756 1524h133q-11 -60 -31 -105t-44 -72t-53.5 -43.5t-56 -22t-55.5 -5.5q-34 0 -180 45q-79 28 -112 26q-22 -1 -38 -10q-8 -4 -15.5 -11t-12.5 -14.5t-10 -16.5t-7.5 -15.5t-5.5 -11.5l-2 -6h-127q4 61 28.5 110.5
t59.5 79t73 45.5t73 16q14 0 26 -0.5t25 -3t18.5 -3t21 -6t18.5 -6t22.5 -8.5t23.5 -9q105 -39 125 -39q81 0 103 86z" />
    <glyph glyph-name="odieresis" unicode="&#xf6;" 
d="M375 762v-385q0 -59 4 -92t18 -61t42.5 -39t76.5 -11q37 0 61 8.5t38.5 22t22 41t9.5 55.5t2 76v385q0 27 -0.5 41t-1.5 38.5t-5 38t-10 32.5t-15.5 29t-23.5 20.5t-33.5 15t-43.5 4.5q-29 0 -52 -7t-37.5 -16.5t-25 -29t-15.5 -34t-7.5 -42t-3 -43.5t-0.5 -47zM516 -31
q-75 -1 -133 9t-101 30.5t-73.5 56t-50.5 78.5t-30.5 105.5t-14.5 130t-4 158.5q0 84 1 127.5t5 112.5t11.5 105t21 87t34 77.5t51 58t70.5 46t93.5 25t119.5 10.5q83 0 146 -17.5t105.5 -40.5t71 -75.5t43.5 -92.5t22.5 -124t8.5 -137t2 -162q0 -91 -3.5 -158.5t-14.5 -130
t-30 -105.5t-49 -78.5t-72.5 -56t-99 -30.5t-130.5 -9zM442 1319h-260v235h260v-235zM844 1319h-262v235h262v-235z" />
    <glyph glyph-name="divide" unicode="&#xf7;" 
d="M53 397v226h920v-226h-920zM641 772h-260v236h260v-236zM641 12h-260v236h260v-236z" />
    <glyph glyph-name="oslash" unicode="&#xf8;" 
d="M645 692l-266 -401q6 -63 35.5 -90t101.5 -27q37 0 61 8.5t38.5 22t22 41t9.5 55.5t2 76v315h-4zM799 1104l108 160l101 -72l-136 -203q20 -52 30 -131t11.5 -139.5t1.5 -181.5q1 -107 -4.5 -182.5t-21 -144t-43 -111t-72 -74.5t-107.5 -44.5t-149 -11.5q-192 -3 -285 72
l-110 -160l-109 70l142 203q-50 125 -47 383q0 82 1 127t5 113t11.5 105t21.5 87.5t34.5 77t51 58t70.5 46t93 25t119 10.5q192 0 283 -82zM379 449l266 399q-5 63 -33 98t-96 35q-29 0 -52 -7t-37.5 -16.5t-25 -29t-15.5 -34t-7.5 -42t-3 -43.5t-0.5 -47v-313h4z" />
    <glyph glyph-name="ugrave" unicode="&#xf9;" 
d="M629 0v172h-4q-31 -103 -91 -152.5t-157 -50.5q-78 0 -129 19t-79 60t-39 93t-11 129v885h266v-790q0 -40 0.5 -55.5t7 -46.5t19.5 -52q34 -37 82 -37q26 0 46 9t33 20.5t21.5 34.5t13 38t6.5 45.5t2 42.5v42v749h267v-1155h-254zM174 1587h318l192 -299h-207z" />
    <glyph glyph-name="uacute" unicode="&#xfa;" 
d="M629 0v172h-4q-31 -103 -91 -152.5t-157 -50.5q-78 0 -129 19t-79 60t-39 93t-11 129v885h266v-790q0 -40 0.5 -55.5t7 -46.5t19.5 -52q34 -37 82 -37q26 0 46 9t33 20.5t21.5 34.5t13 38t6.5 45.5t2 42.5v42v749h267v-1155h-254zM342 1288l193 299h317l-303 -299h-207z
" />
    <glyph glyph-name="ucircumflex" unicode="&#xfb;" 
d="M629 0v172h-4q-31 -103 -91 -152.5t-157 -50.5q-78 0 -129 19t-79 60t-39 93t-11 129v885h266v-790q0 -40 0.5 -55.5t7 -46.5t19.5 -52q34 -37 82 -37q26 0 46 9t33 20.5t21.5 34.5t13 38t6.5 45.5t2 42.5v42v749h267v-1155h-254zM383 1597h256l235 -299h-233l-129 168
l-131 -168h-229z" />
    <glyph glyph-name="udieresis" unicode="&#xfc;" 
d="M629 0v172h-4q-31 -103 -91 -152.5t-157 -50.5q-78 0 -129 19t-79 60t-39 93t-11 129v885h266v-790q0 -40 0.5 -55.5t7 -46.5t19.5 -52q34 -37 82 -37q26 0 46 9t33 20.5t21.5 34.5t13 38t6.5 45.5t2 42.5v42v749h267v-1155h-254zM442 1319h-260v235h260v-235zM844 1319
h-262v235h262v-235z" />
    <glyph glyph-name="yacute" unicode="&#xfd;" horiz-adv-x="909" 
d="M10 1155h281l117 -612q18 -101 38 -307h5q11 134 41 299l116 620h271l-281 -1171q-6 -22 -16 -65q-36 -145 -64 -197q-50 -93 -157 -114q-79 -15 -205 3v207q7 0 32 -2t42.5 -1.5t38.5 4.5t32.5 16.5t11.5 33.5q0 49 -24 147zM285 1288l192 299h318l-303 -299h-207z" />
    <glyph glyph-name="thorn" unicode="&#xfe;" 
d="M631 397v385q0 199 -121 199q-40 0 -65.5 -17.5t-38 -54t-17 -78.5t-4.5 -106v-346q0 -205 129 -205q117 0 117 223zM119 -387v1923h266v-502h4q36 83 91 117.5t141 34.5q67 0 116 -21t86 -69.5t55.5 -132.5t18.5 -205v-385q0 -404 -276 -404q-82 0 -138 31t-94 106h-4
v-493h-266z" />
    <glyph glyph-name="ydieresis" unicode="&#xff;" horiz-adv-x="909" 
d="M10 1155h281l117 -612q18 -101 38 -307h5q11 134 41 299l116 620h271l-281 -1171q-6 -22 -16 -65q-36 -145 -64 -197q-50 -93 -157 -114q-79 -15 -205 3v207q7 0 32 -2t42.5 -1.5t38.5 4.5t32.5 16.5t11.5 33.5q0 49 -24 147zM385 1319h-260v235h260v-235zM786 1319h-262
v235h262v-235z" />
    <glyph glyph-name="dotlessi" unicode="&#x131;" horiz-adv-x="569" 
d="M418 0h-266v1155h266v-1155z" />
    <glyph glyph-name="Lslash" unicode="&#x141;" 
d="M971 0h-819v594l-152 -121v260l152 121v682h286v-463l211 180v-262l-211 -180v-586h533v-225z" />
    <glyph glyph-name="lslash" unicode="&#x142;" horiz-adv-x="569" 
d="M152 0v741l-148 -102v195l148 104v598h266v-487l139 98v-197l-139 -98v-852h-266z" />
    <glyph glyph-name="OE" unicode="&#x152;" horiz-adv-x="1705" 
d="M829 463v633q0 40 -5.5 74.5t-19 68t-35.5 56.5t-57 36t-81 10q-36 -3 -66 -17t-51 -34.5t-38 -52.5t-27.5 -61.5t-18 -72.5t-11 -74t-5 -76.5t-1.5 -71.5t0.5 -67t0.5 -54t-0.5 -52.5t-0.5 -65.5t1.5 -70.5t4.5 -76.5t10.5 -74t17.5 -71.5t26.5 -60.5t37.5 -50t50 -31.5
t64 -12.5q65 0 107.5 19.5t62.5 59t27 82.5t7 107zM1116 225h506v-225h-776v150h-4q-49 -84 -134 -135.5t-135 -51.5q-94 0 -168 29t-120.5 79t-80 117.5t-48 145t-24 160.5t-8 164.5t0.5 157.5v75q-1 96 9 185t40.5 182t78.5 160.5t129 111t187 43.5q83 0 159.5 -38.5
t117.5 -119.5h4v4l4 -4v121h768v-225h-506v-389h469v-226h-469v-471z" />
    <glyph glyph-name="oe" unicode="&#x153;" horiz-adv-x="1478" 
d="M1389 743v-215h-506v-118q-1 -138 23.5 -187t88.5 -49q63 0 95 35t32 98v86h267q2 -228 -93 -326t-323 -98q-63 0 -124 29t-101 80q-53 -56 -121.5 -82.5t-124.5 -26.5q-75 -1 -133 9t-101.5 30.5t-74 56t-50 78.5t-30.5 105.5t-15 130t-4 158.5q0 83 1 127.5t5 113
t11.5 105t21.5 88t34.5 78t51 58t70.5 46t93.5 24.5t119.5 9q71 -2 127 -27.5t119 -89.5q83 117 282 117q39 0 79.5 -6t95 -32t85.5 -69q99 -137 99 -336zM879 733h243v72q0 94 -27.5 135t-97.5 41q-28 0 -49 -9t-33.5 -27t-20 -35.5t-11 -45.5t-4 -45t-0.5 -45v-41z
M360 762v-322q1 -117 15.5 -175.5t38 -74t71.5 -16.5q48 0 75 19t42.5 82.5t13.5 181.5v338q-5 107 -31.5 146.5t-99.5 39.5q-72 0 -101 -51.5t-24 -167.5z" />
    <glyph glyph-name="Scaron" unicode="&#x160;" horiz-adv-x="1138" 
d="M1001 1069h-276q1 48 -1 81.5t-11.5 72.5t-27 62.5t-50 39.5t-78.5 16q-158 0 -158 -143q0 -34 9.5 -63t21 -47.5t38 -41t42.5 -33.5t53 -34q251 -158 348 -252q72 -70 100.5 -144t28.5 -177q0 -213 -128.5 -328t-344.5 -115q-467 0 -467 467v113h287v-90
q-10 -258 180 -258q178 0 178 180q0 124 -114 203q-50 39 -150 103t-175.5 123.5t-127.5 127.5q-74 110 -74 235q0 199 113 302.5t338 103.5q91 0 163.5 -19.5t118 -48.5t78.5 -74.5t49 -85t25 -94.5t10.5 -87.5t1.5 -78.5v-16zM932 1937l-236 -299h-256l-231 299h229
l131 -168l129 168h234z" />
    <glyph glyph-name="scaron" unicode="&#x161;" horiz-adv-x="909" 
d="M59 381h267q-3 -30 -3.5 -56t2.5 -45.5t6.5 -35t10.5 -26t13 -18.5t16.5 -13t17 -7.5t18.5 -4t18.5 -1.5h18.5h5q58 0 90.5 37t19.5 92q-1 19 -9 35.5t-25 32t-29 24.5t-36.5 24.5t-31.5 20.5l-145 101q-108 75 -164 160.5t-56 203.5q0 134 103.5 207.5t294.5 73.5
q379 0 370 -383h-266q4 96 -24.5 137t-98.5 41q-50 0 -81 -23.5t-31 -70.5q0 -24 7 -43t25.5 -37t28.5 -25.5t39 -27.5l217 -148q57 -33 116.5 -102.5t65.5 -124.5q3 -43 4.5 -86t-8.5 -83.5t-26 -76.5t-47.5 -66t-74 -52t-104.5 -34t-139 -12q-33 0 -67 4t-74.5 16
t-75.5 31t-67.5 51.5t-54.5 74t-32 102t-4 133.5zM797 1556l-236 -299h-256l-231 299h229l131 -167l129 167h234z" />
    <glyph glyph-name="Ydieresis" unicode="&#x178;" horiz-adv-x="1138" 
d="M338 1536l162 -403q51 -124 67 -236h4q5 29 12 58.5t13 50t17.5 51t16.5 43.5t19 46t17 42l137 348h313l-405 -883v-653h-287v653l-399 883h313zM500 1700h-260v235h260v-235zM901 1700h-262v235h262v-235z" />
    <glyph glyph-name="Zcaron" unicode="&#x17d;" 
d="M68 0v229l493 953q5 9 22 41.5t29.5 53.5t28.5 40q-37 -6 -111 -6h-430v225h840v-229l-494 -953q-6 -11 -22 -42t-28.5 -52.5t-28.5 -40.5q37 6 110 6h481v-225h-890zM874 1937l-235 -299h-256l-231 299h229l131 -168l129 168h233z" />
    <glyph glyph-name="zcaron" unicode="&#x17e;" horiz-adv-x="796" 
d="M752 965l-422 -760h422v-205h-705v209l406 741h-398v205h697v-190zM760 1556l-236 -299h-256l-231 299h229l131 -167l129 167h234z" />
    <glyph glyph-name="florin" unicode="&#x192;" 
d="M1008 1530l-45 -211q-46 24 -86 24q-27 0 -48.5 -7t-36 -17.5t-26.5 -28.5t-18.5 -34t-12 -41t-8 -42.5t-6.5 -45t-6 -42.5l-10 -63h227v-195h-254l-98 -604q-17 -101 -29 -160.5t-38.5 -149t-57.5 -149.5q-35 -68 -107 -105.5t-151 -37.5q-74 0 -179 25l35 221
q37 -32 93 -30t79 48q27 52 47 168l134 774h-228v195h258l33 160q12 65 30 118t47.5 103.5t68 84.5t94.5 54.5t125 20.5q53 0 159 -29q2 -1 7.5 -2t7.5 -2z" />
    <glyph glyph-name="circumflex" unicode="&#x2c6;" horiz-adv-x="681" 
d="M211 1618h256l235 -299h-233l-129 168l-131 -168h-229z" />
    <glyph glyph-name="caron" unicode="&#x2c7;" horiz-adv-x="681" 
d="M702 1597l-235 -299h-256l-231 299h229l131 -167l129 167h233z" />
    <glyph glyph-name="breve" unicode="&#x2d8;" horiz-adv-x="681" 
d="M553 1597h133q-19 -144 -108.5 -220.5t-235.5 -76.5q-163 0 -255 82.5t-89 214.5h133q7 -71 61.5 -107t139.5 -36q107 0 158.5 34t62.5 109z" />
    <glyph glyph-name="dotaccent" unicode="&#x2d9;" horiz-adv-x="681" 
d="M471 1319h-260v235h260v-235z" />
    <glyph glyph-name="ring" unicode="&#x2da;" horiz-adv-x="681" 
d="M342 1294q-89 0 -154 64t-65 153t65 154.5t154 65.5q90 0 153.5 -65t63.5 -155q0 -91 -63 -154t-154 -63zM342 1630q-50 0 -84.5 -35t-34.5 -84q0 -47 36.5 -81.5t82.5 -34.5t82.5 35.5t36.5 80.5q0 47 -36 83t-83 36z" />
    <glyph glyph-name="ogonek" unicode="&#x2db;" horiz-adv-x="681" 
d="M569 -213v-176q-65 -31 -151 -31q-101 0 -169.5 52t-68.5 151q0 35 14.5 67t44 60.5t52 46t59.5 43.5h139v-4q-50 -26 -89.5 -71.5t-39.5 -84.5q0 -38 28 -64t67 -26q17 0 36 6t43.5 16.5t34.5 14.5z" />
    <glyph glyph-name="tilde" unicode="&#x2dc;" horiz-adv-x="681" 
d="M584 1565h133q-11 -60 -31 -105t-44 -72t-53.5 -43.5t-56 -22t-55.5 -5.5q-34 0 -180 45q-79 28 -112 26q-22 -1 -38 -10q-8 -4 -15.5 -11t-12.5 -14.5t-10 -16.5t-7.5 -15.5t-5.5 -12.5l-2 -5h-127q4 61 28.5 110.5t59.5 79t73 45.5t73 16q14 0 26 -0.5t25 -3t18.5 -3
t21 -6t18.5 -6t22.5 -8.5t23.5 -9q105 -39 125 -39q81 0 103 86z" />
    <glyph glyph-name="hungarumlaut" unicode="&#x2dd;" horiz-adv-x="681" 
d="M-35 1298l193 299h317l-303 -299h-207zM406 1298l192 299h317l-303 -299h-206z" />
    <glyph glyph-name="endash" unicode="&#x2013;" 
d="M1024 530h-1024v226h1024v-226z" />
    <glyph glyph-name="emdash" unicode="&#x2014;" horiz-adv-x="2048" 
d="M2048 530h-2048v226h2048v-226z" />
    <glyph glyph-name="quoteleft" unicode="&#x2018;" horiz-adv-x="569" 
d="M403 1569v-94q-139 -19 -131 -195h131v-266h-247v243q0 142 54.5 216t192.5 96z" />
    <glyph glyph-name="quoteright" unicode="&#x2019;" horiz-adv-x="569" 
d="M166 981v94q139 19 131 195h-131v266h248v-244q0 -142 -55 -215t-193 -96z" />
    <glyph glyph-name="quotesinglbase" unicode="&#x201a;" horiz-adv-x="569" 
d="M178 -283v95q79 16 105.5 61t23.5 131h-129v266h246v-243q0 -142 -53 -211.5t-193 -98.5z" />
    <glyph glyph-name="quotedblleft" unicode="&#x201c;" 
d="M426 1569v-94q-139 -19 -131 -195h131v-266h-248v243q0 142 55 215.5t193 96.5zM829 1569v-94q-139 -19 -131 -195h131v-266h-247v243q0 142 54.5 216t192.5 96z" />
    <glyph glyph-name="quotedblright" unicode="&#x201d;" 
d="M598 981v94q139 19 131 195h-131v266h248v-244q0 -142 -55 -215t-193 -96zM195 981v94q139 19 131 195h-131v266h247v-244q0 -142 -54.5 -215t-192.5 -96z" />
    <glyph glyph-name="quotedblbase" unicode="&#x201e;" 
d="M600 -283v95q75 18 107 61q22 39 22 131h-129v266h246v-243q0 -142 -53 -211.5t-193 -98.5zM197 -283v95q79 16 105.5 61t23.5 131h-129v266h245v-243q0 -143 -52.5 -212t-192.5 -98z" />
    <glyph glyph-name="dagger" unicode="&#x2020;" 
d="M385 864h-309v230h309v479h262v-479h301v-230h-301v-1181h-262v1181z" />
    <glyph glyph-name="daggerdbl" unicode="&#x2021;" 
d="M385 158h-313v231h313v471h-313v232h313v481h262v-481h307v-232h-307v-471h307v-231h-307v-488h-262v488z" />
    <glyph glyph-name="bullet" unicode="&#x2022;" horiz-adv-x="860" 
d="M815 768q0 -160 -113.5 -273.5t-273.5 -113.5q-159 0 -271 113.5t-112 273.5q0 159 112 271t271 112q160 0 273.5 -112.5t113.5 -270.5z" />
    <glyph glyph-name="ellipsis" unicode="&#x2026;" horiz-adv-x="2048" 
d="M477 0h-270v270h270v-270zM1159 0h-270v270h270v-270zM1841 0h-270v270h270v-270z" />
    <glyph glyph-name="perthousand" unicode="&#x2030;" horiz-adv-x="2275" 
d="M1186 750q63 0 111.5 -11t81.5 -28.5t56.5 -47.5t36 -58t19.5 -71t8.5 -76.5t1.5 -82.5t-1.5 -82.5t-8.5 -76.5t-19.5 -71t-36 -58t-56.5 -47.5t-81.5 -28.5t-111.5 -11q-62 0 -110.5 11t-81 28.5t-56 47t-36 58.5t-19.5 71t-9 76t-2 83t2 83t9 76t19.5 71t36 58.5t56 47
t81 28.5t110.5 11zM1188 600q-29 0 -50 -6t-34 -22.5t-20.5 -31.5t-10.5 -47t-3.5 -53t-0.5 -65t0.5 -65t3.5 -53t10.5 -47t20.5 -31.5t34 -22.5t50 -6q25 0 43.5 6t31 14t20.5 26t12.5 32t6.5 43t2.5 47.5t0.5 56.5t-0.5 56.5t-2.5 47.5t-6.5 43t-12.5 32t-20.5 26t-31 14
t-43.5 6zM1919 750q63 0 111.5 -11t81.5 -28.5t56.5 -47.5t36 -58t19.5 -71t8.5 -76.5t1.5 -82.5t-1.5 -82.5t-8.5 -76.5t-19.5 -71t-36 -58t-56.5 -47.5t-81.5 -28.5t-111.5 -11q-62 0 -110.5 11t-81 28.5t-55.5 47t-35.5 58.5t-19.5 71t-9 76t-2 83t2 83t9 76t19.5 71
t35.5 58.5t55.5 47t81 28.5t110.5 11zM1921 600q-29 0 -50 -6t-34 -22.5t-20.5 -31.5t-10.5 -47t-3.5 -53t-0.5 -65t0.5 -65t3.5 -53t10.5 -47t20.5 -31.5t34 -22.5t50 -6q25 0 43.5 6t31 14t20.5 26t12.5 32t6.5 43t2.5 47.5t0.5 56.5t-0.5 56.5t-2.5 47.5t-6.5 43
t-12.5 32t-20.5 26t-31 14t-43.5 6zM356 1507q63 0 112 -11t81.5 -28.5t56 -47t36.5 -58t20 -71t8.5 -76t1.5 -82.5t-1.5 -82.5t-8.5 -76.5t-20 -71t-36.5 -58t-56 -47.5t-81.5 -28.5t-112 -11q-62 0 -110.5 11t-81 28.5t-55.5 47t-35.5 58.5t-19.5 71t-9 76t-2 83t2 83
t9 76t19.5 70.5t35.5 58t55.5 47t81 28.5t110.5 11zM358 1358q-22 0 -39 -3.5t-29.5 -13t-21 -18t-14 -27.5t-8.5 -31t-4.5 -39.5t-1.5 -42.5v-50v-50t1.5 -42.5t4.5 -39.5t8.5 -31.5t14 -28t21 -18t29.5 -13t39 -3.5t39 3.5t29 13t20.5 18.5t14 27.5t8.5 31.5t4.5 39.5
t1.5 42.5v50q0 38 -0.5 56.5t-2.5 47.5t-6.5 43t-12.5 32t-20.5 26t-31 14t-43.5 6zM504 -37h-150l695 1569h147z" />
    <glyph glyph-name="guilsinglleft" unicode="&#x2039;" horiz-adv-x="569" 
d="M440 127l-321 291v209l321 288v-229l-194 -154l194 -174v-231z" />
    <glyph glyph-name="guilsinglright" unicode="&#x203a;" horiz-adv-x="569" 
d="M129 127v231l193 166l-193 162v229l322 -288v-209z" />
    <glyph glyph-name="fraction" unicode="&#x2044;" horiz-adv-x="342" 
d="M-193 0h-153l870 1511h154z" />
    <glyph glyph-name="fraction" unicode="&#x2215;" horiz-adv-x="342" 
d="M-193 0h-153l870 1511h154z" />
    <glyph glyph-name="Euro" unicode="&#x20ac;" 
d="M944 1473v-267q-80 84 -237 84q-114 0 -177.5 -65.5t-80.5 -200.5h436l-60 -203h-399q0 -7 -1 -27t-1 -30q0 -13 1 -37.5t1 -32.5h360l-59 -200h-278q34 -273 260 -273q153 0 235 82v-268q-31 -25 -104 -44.5t-176 -19.5q-407 0 -478 523h-151l59 200h74q-2 18 -2 68
q0 41 2 59h-133l59 203h90q72 518 480 518q94 0 169 -21t111 -48z" />
    <glyph glyph-name="trademark" unicode="&#x2122;" horiz-adv-x="1761" 
d="M1585 1536v-827h-164v667h-4l-215 -667h-96l-215 667h-4v-667h-164v827h264l166 -489h4l164 489h264zM635 1536v-160h-236v-667h-163v667h-234v160h633z" />
    <glyph glyph-name="minus" unicode="&#x2212;" 
d="M53 397v226h920v-226h-920z" />
    <glyph glyph-name="fi" unicode="&#xfb01;" 
d="M913 1155v-1155h-266v1155h266zM913 1536v-242h-266v242h266zM504 1536v-213q-40 12 -60 12q-55 0 -55 -45v-135h115v-194h-115v-961h-266v961h-103v194h103v115q0 152 64.5 209t215.5 57h101z" />
    <glyph glyph-name="fl" unicode="&#xfb02;" 
d="M907 1536v-1536h-266v1536h266zM123 961h-103v194h103v115q0 152 64.5 209t215.5 57h101v-213q-40 12 -60 12q-55 0 -55 -45v-135h115v-194h-115v-961h-266v961z" />
    </font>
</defs>
</svg>
